<svg version="1.1" id="Layer_1" xmlns="http://www.w3.org/2000/svg" xmlns:xlink="http://www.w3.org/1999/xlink" x="0px" y="0px"
	 width="100%" viewBox="0 0 1200 1200" enable-background="new 0 0 1200 1200" xml:space="preserve">
<path fill="#000000" opacity="1.000000" stroke="none" 
	d="
M1201.000000,650.000000 
	C1201.000000,833.633179 1201.000000,1017.266357 1201.000000,1200.949707 
	C801.106384,1200.949707 401.212769,1200.949707 1.000000,1200.949707 
	C1.000000,1017.639954 1.000000,834.279663 1.426267,650.390991 
	C2.225760,650.537354 2.843758,651.180237 2.936448,651.891541 
	C5.314413,670.139954 7.375851,688.433594 10.032754,706.640503 
	C13.829823,732.660706 20.288734,758.121582 28.673246,782.991699 
	C35.330021,802.737061 42.389305,822.461182 51.019562,841.397339 
	C61.446766,864.276123 73.106255,886.656128 85.366585,908.618896 
	C97.535011,930.416992 111.689896,951.049438 127.709122,970.270874 
	C141.003799,986.223206 154.128387,1002.370667 168.289352,1017.534241 
	C186.470810,1037.003052 206.303009,1054.817749 227.520920,1070.992676 
	C240.713120,1081.049438 253.757370,1091.356567 267.487793,1100.634155 
	C280.120148,1109.169800 293.339630,1116.922852 306.738373,1124.216064 
	C323.800690,1133.503540 340.857788,1143.044067 358.728027,1150.542969 
	C381.699493,1160.182495 405.322113,1168.363647 428.965393,1176.272461 
	C442.447906,1180.782715 456.448212,1183.873169 470.363861,1186.925903 
	C485.727203,1190.296021 501.238403,1193.016235 516.731018,1195.760620 
	C522.614929,1196.802856 528.626526,1197.123779 534.577271,1197.773193 
	C534.577271,1152.296631 534.577271,1107.264282 534.577271,1062.489624 
	C531.864441,1061.941650 529.627197,1061.354370 527.352051,1061.051270 
	C505.005493,1058.073242 483.202454,1052.601929 461.790497,1045.786987 
	C430.081055,1035.694580 399.670197,1022.570618 370.695160,1006.009460 
	C339.983337,988.455566 311.414856,967.967468 285.699219,943.830200 
	C269.892181,928.993347 255.400269,912.679565 241.052048,896.382446 
	C220.649384,873.208496 204.253860,847.175293 189.614777,820.072083 
	C177.319382,797.308167 167.172455,773.555115 158.962494,749.018921 
	C149.362930,720.329712 142.701935,690.982849 138.854401,660.926208 
	C136.052429,639.037537 134.599579,617.140381 135.027176,595.105835 
	C135.194305,586.493835 135.521942,577.879089 136.041199,569.281555 
	C136.547974,560.890381 136.964600,552.456726 138.187027,544.154480 
	C140.119446,531.030151 142.049881,517.845764 145.145523,504.966705 
	C149.622253,486.341827 155.011795,467.930115 160.339203,449.522186 
	C161.211639,446.507568 160.874786,444.609955 158.452072,443.210968 
	C142.644409,434.083038 126.763153,425.082642 110.944366,415.973877 
	C94.698753,406.619293 78.507561,397.170258 62.270527,387.800720 
	C56.223423,384.311218 50.114002,380.929749 43.529301,377.214874 
	C40.105682,386.398132 36.908012,394.648315 33.945702,402.982117 
	C24.815170,428.669006 17.635984,454.926392 12.326029,481.639130 
	C9.256727,497.079834 7.266301,512.742493 5.053360,528.342590 
	C4.037107,535.506653 3.704965,542.766174 2.905241,549.964966 
	C2.823058,550.704712 1.660975,551.324524 0.999993,552.000000 
	C1.000000,368.403259 1.000000,184.806534 1.000000,1.000000 
	C184.360138,1.000000 367.720337,1.000000 551.528137,1.418980 
	C551.305969,2.216703 550.666199,2.854012 549.962036,2.935698 
	C538.018555,4.321079 525.944641,4.964918 514.143433,7.112696 
	C491.371796,11.257057 468.630096,15.717454 446.099792,21.001059 
	C411.966248,29.005753 379.345306,41.600277 347.609375,56.327351 
	C319.481232,69.380196 292.606384,84.747726 266.779663,101.990730 
	C243.151093,117.766159 220.715622,135.125061 199.707123,154.111588 
	C183.161209,169.065018 167.593018,185.255188 152.846146,202.001724 
	C137.412949,219.527618 123.493095,238.385025 108.875237,256.631165 
	C106.532494,259.555389 107.053947,261.283447 110.358734,263.173431 
	C125.224411,271.675201 139.915543,280.481537 154.745300,289.046936 
	C172.136963,299.092072 189.600616,309.012634 207.046738,318.963257 
	C212.443680,322.041443 217.885330,325.041290 222.734985,327.756989 
	C318.990936,203.779114 443.690338,135.472961 601.243713,135.481583 
	C758.828796,135.490204 883.370911,204.144531 979.384705,327.894379 
	C990.218811,321.649231 1001.323303,315.253113 1012.423096,308.848969 
	C1038.844482,293.604797 1065.240601,278.316589 1091.715942,263.166534 
	C1094.699585,261.459167 1095.539795,259.783722 1093.423340,256.981476 
	C1088.103638,249.938171 1082.799072,242.883347 1077.451904,235.860886 
	C1057.570068,209.749969 1036.186523,184.975845 1011.589050,163.159546 
	C997.518860,150.680176 983.642639,137.878769 968.691833,126.522179 
	C950.373474,112.607605 931.637756,99.029366 911.949097,87.190758 
	C891.361328,74.811508 869.681335,64.142311 847.995300,53.732773 
	C833.059998,46.563652 817.460327,40.674076 801.874939,34.987133 
	C775.711914,25.440434 748.952942,17.806971 721.526367,12.798273 
	C705.680420,9.904467 689.753113,7.429331 673.818726,5.059648 
	C666.665894,3.995919 659.399841,3.706888 652.203247,2.904543 
	C651.407898,2.815877 650.731567,1.660605 650.000000,1.000004 
	C833.596741,1.000000 1017.193420,1.000000 1201.000000,1.000000 
	C1201.000000,184.360138 1201.000000,367.720337 1200.573730,551.608704 
	C1199.433228,547.519958 1198.637695,542.914001 1198.019775,538.284241 
	C1195.954224,522.810242 1194.673340,507.190979 1191.769775,491.878052 
	C1186.392090,463.518005 1179.300903,435.533691 1169.909546,408.197174 
	C1166.410767,398.012878 1162.474487,387.978973 1158.532959,377.323242 
	C1155.799438,378.698456 1153.717163,379.615845 1151.760864,380.750336 
	C1131.567749,392.460114 1111.409790,404.230621 1091.211670,415.931610 
	C1076.563843,424.417206 1061.793213,432.693909 1047.230835,441.322693 
	C1040.413818,445.362030 1040.651611,445.615143 1043.067017,453.016754 
	C1052.450684,481.772949 1059.388062,511.051453 1063.144897,541.132690 
	C1065.773804,562.183105 1067.324951,583.235291 1066.968140,604.426514 
	C1066.828857,612.701355 1066.528076,620.983765 1065.953979,629.238586 
	C1065.108154,641.405029 1064.853149,653.710144 1062.725586,665.667847 
	C1059.170654,685.646973 1054.696533,705.485291 1049.946899,725.223450 
	C1043.859863,750.519165 1034.354614,774.667358 1023.322266,798.177185 
	C1011.418701,823.543457 997.764343,847.974609 980.922241,870.414612 
	C969.376282,885.798279 957.710388,901.216370 944.729980,915.363892 
	C931.747253,929.513855 917.489136,942.591431 902.994507,955.226440 
	C890.756653,965.894226 877.721619,975.741455 864.432434,985.088867 
	C839.752136,1002.448425 813.381470,1016.864197 785.621216,1028.812134 
	C761.274475,1039.290894 736.331116,1047.883545 710.556519,1053.950195 
	C696.244141,1057.318726 681.754089,1059.932373 667.269287,1062.901489 
	C667.269287,1107.706055 667.269287,1152.635132 667.269287,1197.686401 
	C668.158142,1197.794434 668.818054,1198.022217 669.427551,1197.927246 
	C681.911438,1195.981201 694.387207,1193.983887 706.869141,1192.025879 
	C731.691101,1188.131836 756.054565,1182.157227 779.895935,1174.391846 
	C798.299133,1168.397705 816.705872,1162.025757 834.304504,1154.043457 
	C859.159485,1142.770142 883.974182,1131.058594 907.493713,1117.292236 
	C929.249451,1104.558228 949.859741,1089.631836 969.894714,1074.263428 
	C987.931396,1060.427856 1004.999268,1045.211304 1021.591980,1029.642212 
	C1041.133179,1011.306458 1058.952148,991.223572 1074.786133,969.573425 
	C1088.639404,950.631592 1102.639038,931.677307 1114.801025,911.651611 
	C1126.823242,891.855896 1137.189087,870.981995 1147.214600,850.069458 
	C1154.725098,834.403015 1160.932861,818.070801 1167.024780,801.774902 
	C1176.915161,775.317871 1184.200073,748.056763 1189.676880,720.372437 
	C1192.732056,704.929993 1194.733276,689.271667 1196.945801,673.673218 
	C1197.962769,666.503906 1198.294922,659.239075 1199.094849,652.034851 
	C1199.176880,651.295166 1200.338989,650.675415 1201.000000,650.000000 
M848.012085,285.980042 
	C848.012085,285.980042 848.078918,285.939819 847.832764,285.285767 
	C841.139465,280.414795 834.446106,275.543793 827.747009,270.668640 
	C825.586243,274.390747 823.671204,277.689545 820.957703,280.965424 
	C814.394104,282.755798 807.547485,283.873871 801.331421,286.489960 
	C791.352051,290.689819 784.149841,298.850464 776.321106,306.044769 
	C774.897339,307.353119 772.996277,308.142151 771.910339,308.630951 
	C771.977356,308.306610 771.950867,307.917206 772.124695,307.667206 
	C782.251282,293.108887 792.435913,278.590637 802.492676,263.984406 
	C804.059875,261.708252 805.051514,259.035767 806.213867,256.735321 
	C798.731018,252.594498 791.962158,248.562317 784.946289,245.019196 
	C762.289917,233.577438 738.948914,223.769043 714.428894,217.055283 
	C702.361511,213.751144 690.123779,211.069275 677.341614,207.756958 
	C668.866333,202.848145 659.783569,200.835938 649.949219,200.920914 
	C622.969788,201.153992 595.986206,200.900208 569.006165,201.097122 
	C564.311829,201.131378 559.626587,202.422958 554.080505,203.050232 
	C521.868042,207.042725 490.538177,214.519150 460.299286,225.996796 
	C481.621155,226.715530 502.790039,227.429108 523.671631,228.778412 
	C519.342285,236.277008 516.768494,244.265076 516.005737,253.001373 
	C498.722687,253.001373 481.439636,253.001373 463.940308,253.001373 
	C469.112885,264.938660 474.355255,277.037079 479.868561,289.760773 
	C492.537323,282.316071 504.726868,275.152954 516.981567,268.926422 
	C516.987671,277.731293 517.150696,286.541473 516.852905,295.336060 
	C516.800415,296.887909 515.141968,299.200623 513.684814,299.763702 
	C498.910187,305.473053 483.977814,310.774628 469.209564,316.499878 
	C466.549133,317.531281 465.033539,317.758545 462.923553,315.547791 
	C458.489380,310.901855 453.685730,306.608551 449.805359,302.017822 
	C451.873718,301.244476 453.942047,300.471130 456.358704,299.567535 
	C450.958740,287.099457 445.688293,274.930511 440.296295,262.480865 
	C434.711243,268.016266 429.657532,273.025085 423.951630,277.889008 
	C417.069092,272.815826 409.548096,269.210510 401.025513,267.220245 
	C408.266876,259.350952 415.508270,251.481689 423.209076,243.225311 
	C423.365784,242.886612 423.522522,242.547913 423.679230,242.209213 
	C423.097870,242.449463 422.516541,242.689713 421.192963,243.008484 
	C406.426300,251.661011 391.659607,260.313538 376.142426,269.007202 
	C367.816162,271.472168 360.229218,275.438599 354.068420,281.520905 
	C334.503967,300.836151 315.033813,320.250580 295.800110,339.893921 
	C292.222137,343.548096 289.910706,348.442383 286.493042,353.021545 
	C286.296539,353.340546 286.100037,353.659546 285.977142,353.986115 
	C285.977142,353.986115 285.947327,353.918365 285.295685,354.170593 
	C276.673828,366.804749 267.808685,379.281006 259.483276,392.107574 
	C244.487076,415.211517 232.680923,439.973541 224.133972,466.101837 
	C218.016922,484.801788 213.423248,504.000061 208.008087,523.706726 
	C201.355713,535.071838 200.099808,547.652100 200.064987,560.407776 
	C200.026489,574.516724 200.905853,588.645569 200.407593,602.731079 
	C199.868286,617.976746 199.534317,633.106506 203.013550,648.895569 
	C205.338882,661.754822 207.566910,674.632629 210.011292,687.469177 
	C214.163528,709.274536 221.471939,730.131836 229.429291,750.775208 
	C229.791428,751.714600 231.098297,752.810364 232.065353,752.916016 
	C242.454224,754.050781 252.845886,755.282166 263.271423,755.926208 
	C274.815857,756.639343 286.396332,756.769226 297.703369,757.750183 
	C290.135712,765.810852 282.568054,773.871521 274.091858,781.994019 
	C263.780609,781.304199 253.469345,780.614441 243.158081,779.924683 
	C242.862793,780.391113 242.567505,780.857544 242.272217,781.323975 
	C251.166367,795.910583 260.060516,810.497192 268.978241,825.844604 
	C271.315521,834.234436 275.484100,841.651794 281.471039,847.910767 
	C293.632935,860.625305 305.764008,873.382263 318.311005,885.711487 
	C329.462280,896.669312 339.181549,909.405151 354.197327,916.742554 
	C365.316925,924.511902 376.391571,932.347046 387.594025,939.995056 
	C389.827576,941.519958 392.590210,943.374268 395.038635,943.278564 
	C403.333679,942.954590 411.603058,941.878174 419.871338,940.987915 
	C431.861816,939.696777 443.885681,938.615112 455.816620,936.897522 
	C469.567993,934.917847 483.233734,932.343384 496.986298,930.959961 
	C497.296021,939.309937 497.605743,947.659851 497.064911,955.999756 
	C488.598083,957.332764 480.138092,958.710938 471.662842,959.987976 
	C459.905579,961.759583 448.136871,963.455139 435.504181,965.311035 
	C437.293030,966.457764 438.256592,967.363403 439.397461,967.764038 
	C458.253021,974.384888 477.031708,981.250427 496.049316,987.372253 
	C504.438263,990.072754 513.322510,991.234436 521.987427,993.022095 
	C521.987427,993.022095 521.919922,993.049744 522.132141,993.640381 
	C522.732483,993.716492 523.332825,993.792603 524.582153,994.192383 
	C533.041382,999.033020 542.009949,1001.226746 551.884644,1001.109741 
	C578.959595,1000.788818 606.041504,1001.100769 633.118774,1000.902100 
	C637.802490,1000.867798 642.476746,999.561218 647.836548,998.917297 
	C648.583862,998.626343 649.331177,998.335388 650.006897,998.022034 
	C650.006897,998.022034 649.989685,998.094971 650.886047,997.992920 
	C655.709106,997.334534 660.527283,996.638367 665.356018,996.024231 
	C685.552307,993.455505 705.112366,988.202209 724.436035,981.982056 
	C730.242371,980.113037 735.964661,977.983093 741.725403,975.972717 
	C726.912537,974.998901 712.422485,975.210266 697.943481,974.901001 
	C691.629700,974.766174 685.338684,973.564087 679.050049,972.122986 
	C682.568848,964.804993 685.491089,957.331360 685.994629,948.999451 
	C703.261963,948.999451 720.529297,948.999451 738.169434,948.999451 
	C730.206970,930.867981 722.128357,912.471985 714.685486,893.736145 
	C718.828735,891.962891 722.924866,890.067078 727.129456,888.453796 
	C730.711853,887.079285 734.419006,886.029907 738.031372,885.431641 
	C738.337891,885.649475 738.644409,885.867310 738.987488,886.011475 
	C738.987488,886.011475 738.915222,886.050659 738.995483,886.813843 
	C746.492798,904.280212 753.990051,921.746582 761.448242,939.121826 
	C766.965454,933.835571 772.075745,928.939270 777.879578,924.060669 
	C784.877441,929.047485 792.391785,932.842346 800.794434,934.725586 
	C793.126099,942.892151 785.457764,951.058777 777.789490,959.225403 
	C778.211975,959.802185 778.634460,960.378967 779.056946,960.955811 
	C793.699585,951.997742 808.342224,943.039673 823.749390,933.999756 
	C832.188293,931.190491 840.397400,927.893738 846.910828,921.562683 
	C861.891968,907.000916 876.859497,892.423950 891.711975,877.731323 
	C900.836792,868.704529 910.709717,860.247681 916.694946,847.847534 
	C917.409302,846.785583 918.058167,845.672058 918.847656,844.669250 
	C934.443481,824.857849 947.378174,803.346252 958.928284,781.012878 
	C963.999695,771.206909 968.401978,761.024414 972.587402,750.799744 
	C976.213135,741.942627 979.103455,732.784485 982.380432,723.586365 
	C955.953979,743.890381 929.869446,763.931702 903.217285,783.668152 
	C893.598999,773.990112 883.980774,764.312012 874.942749,755.217712 
	C881.574158,740.541565 888.663025,726.416504 894.256897,711.722229 
	C896.573669,705.636292 899.456482,704.152344 904.999268,705.936768 
	C903.460083,715.357178 902.078735,724.806885 900.333069,734.188904 
	C898.858826,742.112122 896.961975,749.956665 894.954651,759.206848 
	C903.981995,752.469238 912.046631,746.617126 919.926819,740.526306 
	C929.676453,732.990540 939.408569,725.420044 948.888000,717.551025 
	C955.157959,712.346375 960.970581,706.590759 967.720093,701.006409 
	C970.732666,699.361389 973.919189,697.968384 976.728638,696.029114 
	C991.349365,685.936157 1000.587463,672.342834 1000.877808,654.253174 
	C1001.334045,625.833740 1001.095276,597.401001 1000.903625,568.975586 
	C1000.872070,564.293579 999.577454,559.619995 998.939209,554.242126 
	C998.643860,553.469360 998.348572,552.696594 998.024963,551.990479 
	C998.024963,551.990479 998.096863,551.998657 998.002075,551.102478 
	C996.856079,542.740173 996.189148,534.277039 994.454712,526.038574 
	C991.675110,512.835388 988.553223,499.677979 984.886963,486.695801 
	C981.856018,475.963287 977.828735,465.512177 974.136780,454.623535 
	C968.567200,461.502167 963.563904,467.870453 958.359436,474.069885 
	C947.237244,487.318451 936.000183,500.470459 924.850403,513.695984 
	C924.062317,514.630798 923.603699,515.843445 922.057251,516.979614 
	C915.961792,516.979614 909.866333,516.979614 903.621277,516.979614 
	C902.052795,512.580872 900.540771,508.340454 899.662964,503.865784 
	C911.048889,490.806396 922.645508,477.923035 933.753967,464.631683 
	C942.587830,454.061951 950.826233,442.994476 959.326050,432.145691 
	C961.525574,429.338257 962.415710,426.894531 960.174316,423.159760 
	C954.323730,413.411316 949.340027,403.146179 943.621643,393.313385 
	C940.501892,387.949066 936.591492,383.044586 933.057983,377.151245 
	C930.722900,367.273102 925.556519,359.043396 918.437378,351.931793 
	C900.767029,334.279999 883.256042,316.464722 865.354675,299.050568 
	C860.592529,294.418060 854.651978,290.996826 848.990601,286.495758 
	C848.669922,286.298462 848.349304,286.101135 848.012085,285.980042 
z"/>
<path fill="#990000" opacity="1.000000" stroke="none" 
	d="
M649.531372,1.000004 
	C650.731567,1.660605 651.407898,2.815877 652.203247,2.904543 
	C659.399841,3.706888 666.665894,3.995919 673.818726,5.059648 
	C689.753113,7.429331 705.680420,9.904467 721.526367,12.798273 
	C748.952942,17.806971 775.711914,25.440434 801.874939,34.987133 
	C817.460327,40.674076 833.059998,46.563652 847.995300,53.732773 
	C869.681335,64.142311 891.361328,74.811508 911.949097,87.190758 
	C931.637756,99.029366 950.373474,112.607605 968.691833,126.522179 
	C983.642639,137.878769 997.518860,150.680176 1011.589050,163.159546 
	C1036.186523,184.975845 1057.570068,209.749969 1077.451904,235.860886 
	C1082.799072,242.883347 1088.103638,249.938171 1093.423340,256.981476 
	C1095.539795,259.783722 1094.699585,261.459167 1091.715942,263.166534 
	C1065.240601,278.316589 1038.844482,293.604797 1012.423096,308.848969 
	C1001.323303,315.253113 990.218811,321.649231 979.384705,327.894379 
	C883.370911,204.144531 758.828796,135.490204 601.243713,135.481583 
	C443.690338,135.472961 318.990936,203.779114 222.734985,327.756989 
	C217.885330,325.041290 212.443680,322.041443 207.046738,318.963257 
	C189.600616,309.012634 172.136963,299.092072 154.745300,289.046936 
	C139.915543,280.481537 125.224411,271.675201 110.358734,263.173431 
	C107.053947,261.283447 106.532494,259.555389 108.875237,256.631165 
	C123.493095,238.385025 137.412949,219.527618 152.846146,202.001724 
	C167.593018,185.255188 183.161209,169.065018 199.707123,154.111588 
	C220.715622,135.125061 243.151093,117.766159 266.779663,101.990730 
	C292.606384,84.747726 319.481232,69.380196 347.609375,56.327351 
	C379.345306,41.600277 411.966248,29.005753 446.099792,21.001059 
	C468.630096,15.717454 491.371796,11.257057 514.143433,7.112696 
	C525.944641,4.964918 538.018555,4.321079 549.962036,2.935698 
	C550.666199,2.854012 551.305969,2.216703 551.987854,1.418980 
	C584.354248,1.000000 616.708435,1.000000 649.531372,1.000004 
z"/>
<path fill="#006699" opacity="1.000000" stroke="none" 
	d="
M1201.000000,649.531311 
	C1200.338989,650.675415 1199.176880,651.295166 1199.094849,652.034851 
	C1198.294922,659.239075 1197.962769,666.503906 1196.945801,673.673218 
	C1194.733276,689.271667 1192.732056,704.929993 1189.676880,720.372437 
	C1184.200073,748.056763 1176.915161,775.317871 1167.024780,801.774902 
	C1160.932861,818.070801 1154.725098,834.403015 1147.214600,850.069458 
	C1137.189087,870.981995 1126.823242,891.855896 1114.801025,911.651611 
	C1102.639038,931.677307 1088.639404,950.631592 1074.786133,969.573425 
	C1058.952148,991.223572 1041.133179,1011.306458 1021.591980,1029.642212 
	C1004.999268,1045.211304 987.931396,1060.427856 969.894714,1074.263428 
	C949.859741,1089.631836 929.249451,1104.558228 907.493713,1117.292236 
	C883.974182,1131.058594 859.159485,1142.770142 834.304504,1154.043457 
	C816.705872,1162.025757 798.299133,1168.397705 779.895935,1174.391846 
	C756.054565,1182.157227 731.691101,1188.131836 706.869141,1192.025879 
	C694.387207,1193.983887 681.911438,1195.981201 669.427551,1197.927246 
	C668.818054,1198.022217 668.158142,1197.794434 667.269287,1197.686401 
	C667.269287,1152.635132 667.269287,1107.706055 667.269287,1062.901489 
	C681.754089,1059.932373 696.244141,1057.318726 710.556519,1053.950195 
	C736.331116,1047.883545 761.274475,1039.290894 785.621216,1028.812134 
	C813.381470,1016.864197 839.752136,1002.448425 864.432434,985.088867 
	C877.721619,975.741455 890.756653,965.894226 902.994507,955.226440 
	C917.489136,942.591431 931.747253,929.513855 944.729980,915.363892 
	C957.710388,901.216370 969.376282,885.798279 980.922241,870.414612 
	C997.764343,847.974609 1011.418701,823.543457 1023.322266,798.177185 
	C1034.354614,774.667358 1043.859863,750.519165 1049.946899,725.223450 
	C1054.696533,705.485291 1059.170654,685.646973 1062.725586,665.667847 
	C1064.853149,653.710144 1065.108154,641.405029 1065.953979,629.238586 
	C1066.528076,620.983765 1066.828857,612.701355 1066.968140,604.426514 
	C1067.324951,583.235291 1065.773804,562.183105 1063.144897,541.132690 
	C1059.388062,511.051453 1052.450684,481.772949 1043.067017,453.016754 
	C1040.651611,445.615143 1040.413818,445.362030 1047.230835,441.322693 
	C1061.793213,432.693909 1076.563843,424.417206 1091.211670,415.931610 
	C1111.409790,404.230621 1131.567749,392.460114 1151.760864,380.750336 
	C1153.717163,379.615845 1155.799438,378.698456 1158.532959,377.323242 
	C1162.474487,387.978973 1166.410767,398.012878 1169.909546,408.197174 
	C1179.300903,435.533691 1186.392090,463.518005 1191.769775,491.878052 
	C1194.673340,507.190979 1195.954224,522.810242 1198.019775,538.284241 
	C1198.637695,542.914001 1199.433228,547.519958 1200.573730,552.068420 
	C1201.000000,584.354248 1201.000000,616.708435 1201.000000,649.531311 
z"/>
<path fill="#006699" opacity="1.000000" stroke="none" 
	d="
M0.999993,552.468628 
	C1.660975,551.324524 2.823058,550.704712 2.905241,549.964966 
	C3.704965,542.766174 4.037107,535.506653 5.053360,528.342590 
	C7.266301,512.742493 9.256727,497.079834 12.326029,481.639130 
	C17.635984,454.926392 24.815170,428.669006 33.945702,402.982117 
	C36.908012,394.648315 40.105682,386.398132 43.529301,377.214874 
	C50.114002,380.929749 56.223423,384.311218 62.270527,387.800720 
	C78.507561,397.170258 94.698753,406.619293 110.944366,415.973877 
	C126.763153,425.082642 142.644409,434.083038 158.452072,443.210968 
	C160.874786,444.609955 161.211639,446.507568 160.339203,449.522186 
	C155.011795,467.930115 149.622253,486.341827 145.145523,504.966705 
	C142.049881,517.845764 140.119446,531.030151 138.187027,544.154480 
	C136.964600,552.456726 136.547974,560.890381 136.041199,569.281555 
	C135.521942,577.879089 135.194305,586.493835 135.027176,595.105835 
	C134.599579,617.140381 136.052429,639.037537 138.854401,660.926208 
	C142.701935,690.982849 149.362930,720.329712 158.962494,749.018921 
	C167.172455,773.555115 177.319382,797.308167 189.614777,820.072083 
	C204.253860,847.175293 220.649384,873.208496 241.052048,896.382446 
	C255.400269,912.679565 269.892181,928.993347 285.699219,943.830200 
	C311.414856,967.967468 339.983337,988.455566 370.695160,1006.009460 
	C399.670197,1022.570618 430.081055,1035.694580 461.790497,1045.786987 
	C483.202454,1052.601929 505.005493,1058.073242 527.352051,1061.051270 
	C529.627197,1061.354370 531.864441,1061.941650 534.577271,1062.489624 
	C534.577271,1107.264282 534.577271,1152.296631 534.577271,1197.773193 
	C528.626526,1197.123779 522.614929,1196.802856 516.731018,1195.760620 
	C501.238403,1193.016235 485.727203,1190.296021 470.363861,1186.925903 
	C456.448212,1183.873169 442.447906,1180.782715 428.965393,1176.272461 
	C405.322113,1168.363647 381.699493,1160.182495 358.728027,1150.542969 
	C340.857788,1143.044067 323.800690,1133.503540 306.738373,1124.216064 
	C293.339630,1116.922852 280.120148,1109.169800 267.487793,1100.634155 
	C253.757370,1091.356567 240.713120,1081.049438 227.520920,1070.992676 
	C206.303009,1054.817749 186.470810,1037.003052 168.289352,1017.534241 
	C154.128387,1002.370667 141.003799,986.223206 127.709122,970.270874 
	C111.689896,951.049438 97.535011,930.416992 85.366585,908.618896 
	C73.106255,886.656128 61.446766,864.276123 51.019562,841.397339 
	C42.389305,822.461182 35.330021,802.737061 28.673246,782.991699 
	C20.288734,758.121582 13.829823,732.660706 10.032754,706.640503 
	C7.375851,688.433594 5.314413,670.139954 2.936448,651.891541 
	C2.843758,651.180237 2.225760,650.537354 1.426267,649.931274 
	C1.000000,617.645752 1.000000,585.291565 0.999993,552.468628 
z"/>
<path fill="#339966" opacity="1.000000" stroke="none" 
	d="
M516.915222,253.011627 
	C516.768494,244.265076 519.342285,236.277008 524.122009,228.304504 
	C529.128784,222.811127 533.195557,217.193848 538.383240,212.945114 
	C543.289001,208.927216 549.371948,206.346588 554.937134,203.133820 
	C559.626587,202.422958 564.311829,201.131378 569.006165,201.097122 
	C595.986206,200.900208 622.969788,201.153992 649.949219,200.920914 
	C659.783569,200.835938 668.866333,202.848145 677.764160,208.248718 
	C680.686646,210.659256 683.312561,212.435760 685.665527,214.520477 
	C698.459656,225.856186 704.393921,240.171265 704.374390,257.211090 
	C704.361877,268.147980 704.830505,279.085449 705.049194,290.486176 
	C705.009583,294.108551 705.255676,297.293365 704.932922,300.419434 
	C704.561035,304.021454 706.154846,305.414795 709.334961,306.825256 
	C723.698608,313.195801 737.871033,319.996185 752.182678,326.486847 
	C753.215210,326.955078 754.809143,326.185547 756.489136,325.994080 
	C760.548584,321.915009 764.260864,317.833435 768.356079,313.653839 
	C768.838745,312.866058 768.938416,312.176270 769.120789,311.250977 
	C769.907471,310.400604 770.611511,309.785767 771.315552,309.170959 
	C772.996277,308.142151 774.897339,307.353119 776.321106,306.044769 
	C784.149841,298.850464 791.352051,290.689819 801.331421,286.489960 
	C807.547485,283.873871 814.394104,282.755798 821.640076,281.302551 
	C829.234436,282.757874 836.147827,283.867767 843.057495,285.000153 
	C844.737488,285.275482 846.405457,285.624634 848.078918,285.939819 
	C848.078918,285.939819 848.012085,285.980042 847.940979,286.305206 
	C848.330750,286.760071 848.791626,286.889740 849.252502,287.019409 
	C854.651978,290.996826 860.592529,294.418060 865.354675,299.050568 
	C883.256042,316.464722 900.767029,334.279999 918.437378,351.931793 
	C925.556519,359.043396 930.722900,367.273102 933.042847,377.982971 
	C933.034363,379.644958 932.920837,380.496765 933.065247,381.302338 
	C936.500000,400.466003 931.412354,416.801270 917.387451,430.496857 
	C906.681030,440.951874 896.297363,451.741364 885.948303,462.552673 
	C884.776672,463.776672 883.818115,466.469818 884.356384,467.866974 
	C889.040405,480.024323 894.088684,492.041321 899.028809,504.100037 
	C900.540771,508.340454 902.052795,512.580872 903.621277,516.979614 
	C909.866333,516.979614 915.961792,516.979614 922.992310,516.998169 
	C935.180115,517.417603 946.643066,516.601440 957.637390,518.499634 
	C974.897095,521.479431 987.108337,532.302795 995.263123,547.718689 
	C996.059326,549.223877 997.145325,550.575684 998.096863,551.998657 
	C998.096863,551.998657 998.024963,551.990479 997.834351,552.250610 
	C998.051392,553.321289 998.458984,554.131958 998.866577,554.942566 
	C999.577454,559.619995 1000.872070,564.293579 1000.903625,568.975586 
	C1001.095276,597.401001 1001.334045,625.833740 1000.877808,654.253174 
	C1000.587463,672.342834 991.349365,685.936157 976.728638,696.029114 
	C973.919189,697.968384 970.732666,699.361389 966.957275,701.020874 
	C958.892578,702.148743 951.622253,703.827148 944.281128,704.237305 
	C934.339722,704.792786 924.343567,704.321350 914.371948,704.407837 
	C911.243591,704.434937 908.118652,704.840393 904.992126,705.072632 
	C899.456482,704.152344 896.573669,705.636292 894.256897,711.722229 
	C888.663025,726.416504 881.574158,740.541565 874.942749,755.217712 
	C883.980774,764.312012 893.598999,773.990112 903.586914,784.160095 
	C904.645020,785.569519 905.263062,786.551331 906.032532,787.394897 
	C916.129211,798.464539 920.605713,811.725708 919.946716,826.427979 
	C919.621216,833.690796 917.398621,840.868713 916.034424,848.085022 
	C910.709717,860.247681 900.836792,868.704529 891.711975,877.731323 
	C876.859497,892.423950 861.891968,907.000916 846.910828,921.562683 
	C840.397400,927.893738 832.188293,931.190491 822.923462,934.003967 
	C815.069214,934.033203 808.040894,934.058289 801.012573,934.083374 
	C792.391785,932.842346 784.877441,929.047485 777.457397,923.707153 
	C776.829285,922.916077 776.724487,922.377441 776.402771,922.055664 
	C764.839722,910.490845 753.268311,898.934326 741.645935,887.429321 
	C740.956421,886.746765 739.835388,886.500183 738.915222,886.050659 
	C738.915222,886.050659 738.987488,886.011475 739.131470,885.730408 
	C738.873962,885.245117 738.472412,885.040894 738.070923,884.836670 
	C734.419006,886.029907 730.711853,887.079285 727.129456,888.453796 
	C722.924866,890.067078 718.828735,891.962891 713.987305,893.761414 
	C704.534912,896.636719 695.746948,899.391357 687.071777,902.464600 
	C686.052734,902.825562 685.068726,904.935486 685.059082,906.242004 
	C684.954041,920.490356 685.046448,934.740112 685.085144,948.989502 
	C685.491089,957.331360 682.568848,964.804993 678.723999,972.617554 
	C672.208435,981.761780 665.269470,989.609436 655.654907,994.656921 
	C653.702881,995.681702 651.874878,996.942810 649.989685,998.094971 
	C649.989685,998.094971 650.006897,998.022034 649.749634,997.863159 
	C648.713379,998.083618 647.934387,998.462952 647.155396,998.842285 
	C642.476746,999.561218 637.802490,1000.867798 633.118774,1000.902100 
	C606.041504,1001.100769 578.959595,1000.788818 551.884644,1001.109741 
	C542.009949,1001.226746 533.041382,999.033020 524.109863,993.741089 
	C523.065002,993.209778 522.492432,993.129761 521.919922,993.049744 
	C521.919922,993.049744 521.987427,993.022095 522.040161,992.704712 
	C509.490082,983.281311 501.435852,971.152222 497.915466,956.009827 
	C497.605743,947.659851 497.296021,939.309937 497.029541,930.027710 
	C497.020416,923.389282 496.968079,917.683044 496.950134,911.513306 
	C496.989441,907.391052 497.229584,903.709778 496.882233,900.084778 
	C496.745361,898.656677 495.617432,896.669189 494.397430,896.098877 
	C479.249969,889.019043 464.013062,882.129517 448.746704,875.308472 
	C448.035645,874.990845 446.832001,875.775635 445.513947,876.044189 
	C444.369385,876.581055 443.452911,877.005798 442.785522,877.677795 
	C434.361511,886.160706 426.263885,894.995789 417.465973,903.068604 
	C412.281738,907.825623 406.436218,912.321838 400.111328,915.267395 
	C390.781677,919.612305 380.802704,922.701172 370.136108,920.006775 
	C364.770386,918.651367 359.381622,917.387146 354.003296,916.081665 
	C339.181549,909.405151 329.462280,896.669312 318.311005,885.711487 
	C305.764008,873.382263 293.632935,860.625305 281.471039,847.910767 
	C275.484100,841.651794 271.315521,834.234436 269.017151,825.048950 
	C267.039398,816.365479 265.757568,808.365967 268.188843,800.411316 
	C270.104645,794.143250 272.704407,788.084106 275.000397,781.932190 
	C282.568054,773.871521 290.135712,765.810852 298.168152,757.360779 
	C304.959961,750.870911 311.347778,744.830688 317.529053,738.586060 
	C318.221954,737.886108 318.172119,735.867493 317.745544,734.731079 
	C311.897064,719.150452 305.985382,703.592346 299.866608,688.116760 
	C299.330902,686.761719 297.294464,685.260803 295.847076,685.141846 
	C291.220795,684.761475 286.543579,685.007324 281.886047,684.998657 
	C270.577179,684.977478 259.055664,686.326111 248.006454,684.619507 
	C228.654602,681.630676 214.414734,670.501831 205.850220,652.581116 
	C205.095276,651.001526 204.047577,649.561890 203.135864,648.057251 
	C199.534317,633.106506 199.868286,617.976746 200.407593,602.731079 
	C200.905853,588.645569 200.026489,574.516724 200.064987,560.407776 
	C200.099808,547.652100 201.355713,535.071838 208.404755,523.284790 
	C209.799973,521.776001 210.880386,520.752991 211.784592,519.592651 
	C222.841583,505.404022 237.235626,497.846832 255.329941,497.731049 
	C267.273376,497.654633 279.217834,497.742950 291.161285,497.667847 
	C293.105560,497.655640 295.046936,497.177429 297.429016,496.949097 
	C302.794067,497.660553 305.281799,496.418610 307.410065,490.890259 
	C313.151306,475.977234 320.340332,461.621552 326.687042,447.634796 
	C321.624908,442.223450 316.308502,436.540344 310.996399,430.510193 
	C305.859619,424.587250 300.592041,419.121887 295.602203,413.413757 
	C282.824280,398.796509 278.915527,381.984589 283.592407,363.160889 
	C284.359009,360.075470 285.161469,356.998993 285.947327,353.918365 
	C285.947327,353.918365 285.977142,353.986115 286.296509,354.043762 
	C286.748871,353.655731 286.881805,353.210022 287.014771,352.764343 
	C289.910706,348.442383 292.222137,343.548096 295.800110,339.893921 
	C315.033813,320.250580 334.503967,300.836151 354.068420,281.520905 
	C360.229218,275.438599 367.816162,271.472168 376.950806,269.050720 
	C385.513458,268.701508 393.267731,268.308807 401.022034,267.916107 
	C409.548096,269.210510 417.069092,272.815826 424.312134,278.314789 
	C432.793030,286.550537 440.913361,294.360535 449.033722,302.170502 
	C453.685730,306.608551 458.489380,310.901855 462.923553,315.547791 
	C465.033539,317.758545 466.549133,317.531281 469.209564,316.499878 
	C483.977814,310.774628 498.910187,305.473053 513.684814,299.763702 
	C515.141968,299.200623 516.800415,296.887909 516.852905,295.336060 
	C517.150696,286.541473 516.987671,277.731293 516.984253,267.993256 
	C516.963074,262.377258 516.939148,257.694458 516.915222,253.011627 
M850.987122,865.982788 
	C850.987122,865.982788 850.938416,865.917114 851.433167,866.561890 
	C861.259949,856.920349 871.497986,847.655579 880.782959,837.517822 
	C888.175598,829.446411 886.240417,814.981750 877.748413,809.340637 
	C870.084595,801.892212 862.420776,794.443787 854.817444,786.324524 
	C850.143311,781.589905 845.489075,776.835388 840.790588,772.125122 
	C832.515808,763.829651 831.532837,756.515991 837.648865,746.630981 
	C849.166504,728.015564 858.566101,708.376221 865.218872,687.546753 
	C868.225708,678.132629 872.738037,671.010132 883.924927,668.984436 
	C891.953064,668.963684 899.981140,668.942932 908.933228,669.105347 
	C921.759521,669.155579 934.589478,669.414734 947.410950,669.190186 
	C957.753418,669.009094 965.753296,661.075745 965.842896,650.624939 
	C966.070190,624.132446 966.054993,597.635803 965.861938,571.142883 
	C965.788086,561.001953 957.600220,552.429810 947.524780,552.231750 
	C931.042419,551.907593 914.546997,552.245544 897.548706,552.296265 
	C897.322021,552.546631 897.095337,552.796936 895.981689,553.009888 
	C894.648560,553.006104 893.312378,553.060425 891.982849,552.989319 
	C880.199768,552.359558 873.786072,547.678162 870.967163,535.995117 
	C869.853882,531.381409 868.469177,526.829956 867.110046,522.279419 
	C861.871399,504.740173 854.877075,487.925354 846.365234,471.718964 
	C842.432800,464.231720 842.437012,454.257050 850.090027,448.342926 
	C851.636353,447.147949 852.783875,445.436920 854.776367,443.870728 
	C867.448120,431.120117 879.738586,417.956726 892.932129,405.770966 
	C901.072144,398.252808 900.729736,384.193481 893.186401,376.847168 
	C874.938293,359.075562 857.143127,340.839691 838.967712,322.992188 
	C830.020508,314.206390 819.096619,314.470184 810.230957,323.211548 
	C802.287598,331.043518 794.394165,338.926941 786.559937,346.867737 
	C785.480713,347.961548 784.869019,349.516632 783.421570,351.147675 
	C781.894226,352.649292 780.453369,354.253143 778.822998,355.633087 
	C774.254883,359.499481 769.608459,363.273407 764.172241,367.089447 
	C760.785278,367.420807 757.398254,367.752167 753.252930,368.010925 
	C751.609253,367.368439 749.861816,366.909698 748.340271,366.050812 
	C742.568115,362.792450 736.869080,359.404602 730.771606,355.454712 
	C715.391846,348.851807 700.200134,341.751740 684.560547,335.835724 
	C675.438843,332.385254 668.349060,326.035919 668.951233,313.937531 
	C669.215332,308.633362 668.955688,303.303101 668.988159,297.050690 
	C668.971680,287.708649 668.955139,278.366577 669.008484,268.086761 
	C669.010010,263.593933 669.583252,259.004639 668.846313,254.636353 
	C668.159790,250.566696 666.722107,246.308426 664.468384,242.888916 
	C660.643250,237.085236 654.105652,236.147598 647.719788,236.086563 
	C631.580139,235.932297 615.437927,236.003021 599.297241,236.081650 
	C597.534241,236.090240 595.774414,236.737900 593.076599,237.017563 
	C585.933899,237.010986 578.791260,236.995743 571.648560,236.999817 
	C560.815186,237.005981 553.000732,244.783783 553.003540,255.570633 
	C553.005066,261.383789 553.049377,267.196930 552.757874,273.794312 
	C552.518677,275.557312 552.082947,277.319092 552.072327,279.083466 
	C552.005371,290.202240 552.120422,301.322540 551.999939,312.440430 
	C551.910339,320.710724 547.601135,326.486115 539.656006,329.069061 
	C535.112061,330.546295 530.376587,331.450562 525.868774,333.019196 
	C517.871521,335.802155 509.981934,338.894501 501.300720,341.998627 
	C493.877716,345.355591 486.454712,348.712524 478.293976,351.924896 
	C476.484863,352.726440 474.634888,353.447601 472.873322,354.342651 
	C461.634674,360.052948 456.423218,359.304657 447.555695,350.614227 
	C443.392120,346.533783 439.299194,342.379150 435.058746,338.380646 
	C433.915741,337.302917 432.350006,336.673492 430.704895,335.248047 
	C424.092651,328.465027 417.480377,321.681976 410.599854,314.314209 
	C407.399933,311.566742 404.200043,308.819275 400.316315,305.788055 
	C392.494263,300.163361 383.569794,303.164276 378.251373,308.384857 
	C363.673584,322.694489 349.419952,337.334381 334.405579,352.117554 
	C329.704956,356.761505 324.552063,361.037659 320.407715,366.134003 
	C313.880707,374.160248 315.779236,385.721588 324.610809,392.183105 
	C330.998535,398.437866 337.386230,404.692627 343.837830,411.668945 
	C349.076904,417.206879 354.226349,422.833008 359.574036,428.263977 
	C370.052094,438.905182 370.745667,444.911407 362.873749,457.773468 
	C352.163635,475.272949 343.484344,493.758850 337.079559,513.230469 
	C334.094910,522.304260 330.665924,530.459412 319.238220,533.015320 
	C298.305511,533.010010 277.370026,533.205017 256.441193,532.917969 
	C245.372498,532.766174 235.025589,543.205444 236.371521,553.402161 
	C236.250961,554.551514 236.026031,555.700867 236.025208,556.850281 
	C236.007751,581.330200 236.412003,605.819885 235.814621,630.285156 
	C235.589401,639.508911 246.405853,650.431274 255.507294,650.097229 
	C270.640869,649.541870 285.810242,649.983887 300.964142,649.918945 
	C302.352356,649.913025 303.737885,649.278809 306.012146,648.987976 
	C307.674835,648.993896 309.339813,648.945007 310.999786,649.014954 
	C320.298126,649.406738 328.185822,654.582031 329.872894,662.173279 
	C335.281036,686.508179 344.778809,709.272339 355.769653,731.506897 
	C360.113251,740.294067 358.691559,747.749329 351.678680,754.830261 
	C342.447235,764.151184 333.250458,773.506348 323.373505,783.046265 
	C318.663361,787.479675 313.863312,791.822083 309.261749,796.365479 
	C299.570801,805.933960 299.427460,815.492004 309.034088,825.289062 
	C326.512848,843.114380 344.084778,860.849304 361.721710,878.518250 
	C370.981232,887.794617 383.532593,887.753479 392.804718,878.518555 
	C400.704956,870.650085 408.470306,862.645447 416.235046,854.642578 
	C417.222870,853.624390 417.845703,852.252136 419.036072,850.467834 
	C420.304840,849.184875 421.485291,847.797241 422.858398,846.637878 
	C427.537415,842.687012 432.284393,838.816711 437.831360,834.915039 
	C443.751556,833.014954 449.232239,833.839233 454.545959,837.123230 
	C460.206360,840.621399 465.829742,844.330688 471.883942,847.011169 
	C487.953247,854.125732 504.221375,860.795166 520.460693,867.520264 
	C528.404480,870.809998 531.889221,875.874451 532.048035,884.246887 
	C532.179565,891.176270 532.723083,898.097839 533.015198,905.954468 
	C533.038025,919.972046 533.060852,933.989624 532.981934,948.809692 
	C533.856567,958.361694 542.015015,965.937500 551.559692,965.949036 
	C575.511047,965.977844 599.462524,965.977905 623.413757,965.930847 
	C625.182617,965.927368 626.950623,965.454712 629.604370,965.052185 
	C642.208984,964.838989 649.177734,957.292419 649.581055,943.526428 
	C649.645630,934.688599 649.710205,925.850830 649.840576,916.494385 
	C649.557678,916.404358 649.274780,916.314331 648.817810,915.994080 
	C648.817810,915.994080 649.018127,915.786255 648.983215,914.876404 
	C648.960205,906.247314 648.937134,897.618164 649.212463,888.296631 
	C651.409546,878.529419 657.605530,873.204163 667.318176,871.184082 
	C673.953064,869.804077 680.502441,867.875183 686.943115,865.746704 
	C691.409180,864.270813 695.624939,862.037659 700.699036,860.001648 
	C708.160034,856.705261 715.621033,853.408936 723.831116,850.249573 
	C732.137329,846.091797 740.584778,842.840454 750.381470,846.733337 
	C756.772949,852.832642 763.164429,858.931946 769.619690,865.745239 
	C779.075684,875.311523 788.514343,884.895203 798.021606,894.410217 
	C798.758850,895.148071 799.978088,895.404297 801.631775,896.241394 
	C808.274475,900.742310 817.578552,899.770447 823.666443,893.812134 
	C832.413086,885.251587 841.089050,876.618958 850.567383,867.763000 
	C850.684692,867.154480 850.802002,866.545898 850.987122,865.982788 
z"/>
<path fill="#EEEEEE" opacity="1.000000" stroke="none" 
	d="
M296.989655,496.914581 
	C295.046936,497.177429 293.105560,497.655640 291.161285,497.667847 
	C279.217834,497.742950 267.273376,497.654633 255.329941,497.731049 
	C237.235626,497.846832 222.841583,505.404022 211.784592,519.592651 
	C210.880386,520.752991 209.799973,521.776001 208.475662,522.919434 
	C213.423248,504.000061 218.016922,484.801788 224.133972,466.101837 
	C232.680923,439.973541 244.487076,415.211517 259.483276,392.107574 
	C267.808685,379.281006 276.673828,366.804749 285.621521,354.044495 
	C285.161469,356.998993 284.359009,360.075470 283.592407,363.160889 
	C278.915527,381.984589 282.824280,398.796509 295.602203,413.413757 
	C300.592041,419.121887 305.859619,424.587250 310.635010,430.694885 
	C308.352997,438.833313 306.091522,446.372894 304.595032,454.061340 
	C301.823700,468.299774 299.499878,482.625305 296.989655,496.914581 
z"/>
<path fill="#EEEEEE" opacity="1.000000" stroke="none" 
	d="
M771.612915,308.900940 
	C770.611511,309.785767 769.907471,310.400604 768.883484,311.489380 
	C768.366760,312.559509 768.169983,313.155701 767.973145,313.751862 
	C764.260864,317.833435 760.548584,321.915009 756.349792,325.665771 
	C745.190918,317.340363 734.659302,309.147430 723.790100,301.430084 
	C717.849548,297.212128 711.337646,293.798828 705.083435,290.022644 
	C704.830505,279.085449 704.361877,268.147980 704.374390,257.211090 
	C704.393921,240.171265 698.459656,225.856186 685.665527,214.520477 
	C683.312561,212.435760 680.686646,210.659256 678.074951,208.423141 
	C690.123779,211.069275 702.361511,213.751144 714.428894,217.055283 
	C738.948914,223.769043 762.289917,233.577438 784.946289,245.019196 
	C791.962158,248.562317 798.731018,252.594498 806.213867,256.735321 
	C805.051514,259.035767 804.059875,261.708252 802.492676,263.984406 
	C792.435913,278.590637 782.251282,293.108887 772.124695,307.667206 
	C771.950867,307.917206 771.977356,308.306610 771.612915,308.900940 
z"/>
<path fill="#EEEEEE" opacity="1.000000" stroke="none" 
	d="
M203.074707,648.476440 
	C204.047577,649.561890 205.095276,651.001526 205.850220,652.581116 
	C214.414734,670.501831 228.654602,681.630676 248.006454,684.619507 
	C259.055664,686.326111 270.577179,684.977478 281.886047,684.998657 
	C286.543579,685.007324 291.220795,684.761475 295.847076,685.141846 
	C297.294464,685.260803 299.330902,686.761719 299.866608,688.116760 
	C305.985382,703.592346 311.897064,719.150452 317.745544,734.731079 
	C318.172119,735.867493 318.221954,737.886108 317.529053,738.586060 
	C311.347778,744.830688 304.959961,750.870911 298.296997,757.062256 
	C286.396332,756.769226 274.815857,756.639343 263.271423,755.926208 
	C252.845886,755.282166 242.454224,754.050781 232.065353,752.916016 
	C231.098297,752.810364 229.791428,751.714600 229.429291,750.775208 
	C221.471939,730.131836 214.163528,709.274536 210.011292,687.469177 
	C207.566910,674.632629 205.338882,661.754822 203.074707,648.476440 
z"/>
<path fill="#EEEEEE" opacity="1.000000" stroke="none" 
	d="
M354.100311,916.412109 
	C359.381622,917.387146 364.770386,918.651367 370.136108,920.006775 
	C380.802704,922.701172 390.781677,919.612305 400.111328,915.267395 
	C406.436218,912.321838 412.281738,907.825623 417.465973,903.068604 
	C426.263885,894.995789 434.361511,886.160706 442.785522,877.677795 
	C443.452911,877.005798 444.369385,876.581055 445.662323,876.365601 
	C456.594360,884.449402 466.904053,892.393188 477.523590,899.898438 
	C483.731995,904.286255 490.435150,907.974121 496.915771,911.976807 
	C496.968079,917.683044 497.020416,923.389282 497.004700,929.561401 
	C483.233734,932.343384 469.567993,934.917847 455.816620,936.897522 
	C443.885681,938.615112 431.861816,939.696777 419.871338,940.987915 
	C411.603058,941.878174 403.333679,942.954590 395.038635,943.278564 
	C392.590210,943.374268 389.827576,941.519958 387.594025,939.995056 
	C376.391571,932.347046 365.316925,924.511902 354.100311,916.412109 
z"/>
<path fill="#EDEEEE" opacity="1.000000" stroke="none" 
	d="
M899.345825,503.982910 
	C894.088684,492.041321 889.040405,480.024323 884.356384,467.866974 
	C883.818115,466.469818 884.776672,463.776672 885.948303,462.552673 
	C896.297363,451.741364 906.681030,440.951874 917.387451,430.496857 
	C931.412354,416.801270 936.500000,400.466003 933.065247,381.302338 
	C932.920837,380.496765 933.034363,379.644958 933.032715,378.373718 
	C936.591492,383.044586 940.501892,387.949066 943.621643,393.313385 
	C949.340027,403.146179 954.323730,413.411316 960.174316,423.159760 
	C962.415710,426.894531 961.525574,429.338257 959.326050,432.145691 
	C950.826233,442.994476 942.587830,454.061951 933.753967,464.631683 
	C922.645508,477.923035 911.048889,490.806396 899.345825,503.982910 
z"/>
<path fill="#EEEEEE" opacity="1.000000" stroke="none" 
	d="
M916.364685,847.966309 
	C917.398621,840.868713 919.621216,833.690796 919.946716,826.427979 
	C920.605713,811.725708 916.129211,798.464539 906.032532,787.394897 
	C905.263062,786.551331 904.645020,785.569519 903.870728,784.312500 
	C929.869446,763.931702 955.953979,743.890381 982.380432,723.586365 
	C979.103455,732.784485 976.213135,741.942627 972.587402,750.799744 
	C968.401978,761.024414 963.999695,771.206909 958.928284,781.012878 
	C947.378174,803.346252 934.443481,824.857849 918.847656,844.669250 
	C918.058167,845.672058 917.409302,846.785583 916.364685,847.966309 
z"/>
<path fill="#EEEEEE" opacity="1.000000" stroke="none" 
	d="
M998.049438,551.550537 
	C997.145325,550.575684 996.059326,549.223877 995.263123,547.718689 
	C987.108337,532.302795 974.897095,521.479431 957.637390,518.499634 
	C946.643066,516.601440 935.180115,517.417603 923.459595,516.971802 
	C923.603699,515.843445 924.062317,514.630798 924.850403,513.695984 
	C936.000183,500.470459 947.237244,487.318451 958.359436,474.069885 
	C963.563904,467.870453 968.567200,461.502167 974.136780,454.623535 
	C977.828735,465.512177 981.856018,475.963287 984.886963,486.695801 
	C988.553223,499.677979 991.675110,512.835388 994.454712,526.038574 
	C996.189148,534.277039 996.856079,542.740173 998.049438,551.550537 
z"/>
<path fill="#EEEEEE" opacity="1.000000" stroke="none" 
	d="
M685.539917,948.994507 
	C685.046448,934.740112 684.954041,920.490356 685.059082,906.242004 
	C685.068726,904.935486 686.052734,902.825562 687.071777,902.464600 
	C695.746948,899.391357 704.534912,896.636719 713.669434,893.931274 
	C722.128357,912.471985 730.206970,930.867981 738.169434,948.999451 
	C720.529297,948.999451 703.261963,948.999451 685.539917,948.994507 
z"/>
<path fill="#EEEEEE" opacity="1.000000" stroke="none" 
	d="
M904.995728,705.504761 
	C908.118652,704.840393 911.243591,704.434937 914.371948,704.407837 
	C924.343567,704.321350 934.339722,704.792786 944.281128,704.237305 
	C951.622253,703.827148 958.892578,702.148743 966.591248,701.058594 
	C960.970581,706.590759 955.157959,712.346375 948.888000,717.551025 
	C939.408569,725.420044 929.676453,732.990540 919.926819,740.526306 
	C912.046631,746.617126 903.981995,752.469238 894.954651,759.206848 
	C896.961975,749.956665 898.858826,742.112122 900.333069,734.188904 
	C902.078735,724.806885 903.460083,715.357178 904.995728,705.504761 
z"/>
<path fill="#EDEEEE" opacity="1.000000" stroke="none" 
	d="
M497.490173,956.004761 
	C501.435852,971.152222 509.490082,983.281311 522.037415,992.741028 
	C513.322510,991.234436 504.438263,990.072754 496.049316,987.372253 
	C477.031708,981.250427 458.253021,974.384888 439.397461,967.764038 
	C438.256592,967.363403 437.293030,966.457764 435.504181,965.311035 
	C448.136871,963.455139 459.905579,961.759583 471.662842,959.987976 
	C480.138092,958.710938 488.598083,957.332764 497.490173,956.004761 
z"/>
<path fill="#EEEEEE" opacity="1.000000" stroke="none" 
	d="
M516.460449,253.006500 
	C516.939148,257.694458 516.963074,262.377258 516.951721,267.524963 
	C504.726868,275.152954 492.537323,282.316071 479.868561,289.760773 
	C474.355255,277.037079 469.112885,264.938660 463.940308,253.001373 
	C481.439636,253.001373 498.722687,253.001373 516.460449,253.006500 
z"/>
<path fill="#EDEEEE" opacity="1.000000" stroke="none" 
	d="
M650.437866,998.043945 
	C651.874878,996.942810 653.702881,995.681702 655.654907,994.656921 
	C665.269470,989.609436 672.208435,981.761780 678.717651,972.979431 
	C685.338684,973.564087 691.629700,974.766174 697.943481,974.901001 
	C712.422485,975.210266 726.912537,974.998901 741.725403,975.972717 
	C735.964661,977.983093 730.242371,980.113037 724.436035,981.982056 
	C705.112366,988.202209 685.552307,993.455505 665.356018,996.024231 
	C660.527283,996.638367 655.709106,997.334534 650.437866,998.043945 
z"/>
<path fill="#EDEEED" opacity="1.000000" stroke="none" 
	d="
M554.508789,203.092026 
	C549.371948,206.346588 543.289001,208.927216 538.383240,212.945114 
	C533.195557,217.193848 529.128784,222.811127 524.265625,227.986649 
	C502.790039,227.429108 481.621155,226.715530 460.299286,225.996796 
	C490.538177,214.519150 521.868042,207.042725 554.508789,203.092026 
z"/>
<path fill="#EBEDEC" opacity="1.000000" stroke="none" 
	d="
M738.955322,886.432251 
	C739.835388,886.500183 740.956421,886.746765 741.645935,887.429321 
	C753.268311,898.934326 764.839722,910.490845 776.402771,922.055664 
	C776.724487,922.377441 776.829285,922.916077 777.110596,923.698242 
	C772.075745,928.939270 766.965454,933.835571 761.448242,939.121826 
	C753.990051,921.746582 746.492798,904.280212 738.955322,886.432251 
z"/>
<path fill="#EDEEEE" opacity="1.000000" stroke="none" 
	d="
M274.546143,781.963135 
	C272.704407,788.084106 270.104645,794.143250 268.188843,800.411316 
	C265.757568,808.365967 267.039398,816.365479 269.005371,824.668518 
	C260.060516,810.497192 251.166367,795.910583 242.272217,781.323975 
	C242.567505,780.857544 242.862793,780.391113 243.158081,779.924683 
	C253.469345,780.614441 263.780609,781.304199 274.546143,781.963135 
z"/>
<path fill="#EBEDEC" opacity="1.000000" stroke="none" 
	d="
M449.419556,302.094177 
	C440.913361,294.360535 432.793030,286.550537 424.638245,278.387238 
	C429.657532,273.025085 434.711243,268.016266 440.296295,262.480865 
	C445.688293,274.930511 450.958740,287.099457 456.358704,299.567535 
	C453.942047,300.471130 451.873718,301.244476 449.419556,302.094177 
z"/>
<path fill="#EEEEEE" opacity="1.000000" stroke="none" 
	d="
M401.023773,267.568176 
	C393.267731,268.308807 385.513458,268.701508 377.326050,269.030151 
	C391.659607,260.313538 406.426300,251.661011 421.761719,243.146957 
	C422.470184,243.394409 422.609894,243.503403 422.749634,243.612411 
	C415.508270,251.481689 408.266876,259.350952 401.023773,267.568176 
z"/>
<path fill="#EFEFEF" opacity="1.000000" stroke="none" 
	d="
M800.903503,934.404480 
	C808.040894,934.058289 815.069214,934.033203 822.541260,934.044922 
	C808.342224,943.039673 793.699585,951.997742 779.056946,960.955811 
	C778.634460,960.378967 778.211975,959.802185 777.789490,959.225403 
	C785.457764,951.058777 793.126099,942.892151 800.903503,934.404480 
z"/>
<path fill="#EAEDEB" opacity="1.000000" stroke="none" 
	d="
M847.955811,285.612793 
	C846.405457,285.624634 844.737488,285.275482 843.057495,285.000153 
	C836.147827,283.867767 829.234436,282.757874 822.039307,281.314026 
	C823.671204,277.689545 825.586243,274.390747 827.747009,270.668640 
	C834.446106,275.543793 841.139465,280.414795 847.955811,285.612793 
z"/>
<path fill="#EDEEEE" opacity="1.000000" stroke="none" 
	d="
M647.495972,998.879761 
	C647.934387,998.462952 648.713379,998.083618 649.785400,997.874390 
	C649.331177,998.335388 648.583862,998.626343 647.495972,998.879761 
z"/>
<path fill="#EEEEEE" opacity="1.000000" stroke="none" 
	d="
M998.902893,554.592346 
	C998.458984,554.131958 998.051392,553.321289 997.848511,552.217285 
	C998.348572,552.696594 998.643860,553.469360 998.902893,554.592346 
z"/>
<path fill="#EEEEEE" opacity="1.000000" stroke="none" 
	d="
M422.132812,243.107697 
	C422.516541,242.689713 423.097870,242.449463 423.679230,242.209213 
	C423.522522,242.547913 423.365784,242.886612 422.979370,243.418854 
	C422.609894,243.503403 422.470184,243.394409 422.132812,243.107697 
z"/>
<path fill="#EDEEEE" opacity="1.000000" stroke="none" 
	d="
M522.026001,993.345093 
	C522.492432,993.129761 523.065002,993.209778 523.785339,993.579224 
	C523.332825,993.792603 522.732483,993.716492 522.026001,993.345093 
z"/>
<path fill="#EBEDEC" opacity="1.000000" stroke="none" 
	d="
M738.051147,885.134155 
	C738.472412,885.040894 738.873962,885.245117 739.113159,885.767212 
	C738.644409,885.867310 738.337891,885.649475 738.051147,885.134155 
z"/>
<path fill="#EEEEEE" opacity="1.000000" stroke="none" 
	d="
M286.753906,352.892944 
	C286.881805,353.210022 286.748871,353.655731 286.259705,354.040009 
	C286.100037,353.659546 286.296539,353.340546 286.753906,352.892944 
z"/>
<path fill="#EAEDEB" opacity="1.000000" stroke="none" 
	d="
M849.121582,286.757568 
	C848.791626,286.889740 848.330750,286.760071 847.949219,286.267090 
	C848.349304,286.101135 848.669922,286.298462 849.121582,286.757568 
z"/>
<path fill="#EEEEEE" opacity="1.000000" stroke="none" 
	d="
M533.084045,905.022827 
	C532.723083,898.097839 532.179565,891.176270 532.048035,884.246887 
	C531.889221,875.874451 528.404480,870.809998 520.460693,867.520264 
	C504.221375,860.795166 487.953247,854.125732 471.883942,847.011169 
	C465.829742,844.330688 460.206360,840.621399 454.545959,837.123230 
	C449.232239,833.839233 443.751556,833.014954 437.322815,834.599731 
	C420.203094,817.732788 404.958832,800.053040 391.533813,780.420654 
	C394.459351,779.855408 396.657013,779.283630 398.890991,779.023682 
	C410.865997,777.630493 422.896149,776.630676 434.818726,774.889038 
	C448.240173,772.928345 461.594635,770.466858 474.925018,767.942139 
	C482.323151,766.541016 489.612732,764.566406 497.289673,762.945007 
	C498.196594,763.370483 498.811554,763.641174 499.326843,764.040527 
	C515.854004,776.846619 534.360168,774.107605 547.074768,757.434143 
	C550.388611,753.088562 555.044678,749.766541 559.490967,745.977295 
	C561.001282,745.772400 562.159607,745.714478 563.200562,745.334656 
	C587.271973,736.550476 611.321655,727.706543 635.425232,719.011658 
	C636.363281,718.673279 638.513855,719.361267 638.883179,720.144470 
	C642.367126,727.534119 645.630920,735.029480 648.873596,742.530823 
	C657.264648,761.942139 665.644775,781.358337 673.965515,800.799805 
	C678.755127,811.990662 683.313782,823.281250 688.176575,834.439758 
	C691.940857,843.077637 696.015686,851.580139 699.952515,860.142822 
	C695.624939,862.037659 691.409180,864.270813 686.943115,865.746704 
	C680.502441,867.875183 673.953064,869.804077 667.318176,871.184082 
	C657.605530,873.204163 651.409546,878.529419 648.670471,888.648254 
	C644.201111,890.336426 640.312134,891.801453 636.340088,892.988464 
	C611.345032,900.457886 586.347778,907.921936 561.294006,915.190369 
	C559.218201,915.792603 556.487244,915.491943 554.457214,914.652161 
	C547.240112,911.666626 540.194580,908.266113 533.084045,905.022827 
z"/>
<path fill="#EEEEEE" opacity="1.000000" stroke="none" 
	d="
M754.011292,368.083557 
	C757.398254,367.752167 760.785278,367.420807 764.679199,367.402069 
	C769.561462,372.414581 774.056274,377.009766 778.286682,381.836731 
	C786.476685,391.181702 795.119873,400.211182 802.497131,410.170074 
	C818.583557,431.885834 833.285217,454.561768 844.039124,479.476257 
	C851.075623,495.778168 857.559509,512.326721 863.946533,528.897461 
	C867.195374,537.326233 866.869385,537.479248 860.193604,543.293945 
	C844.904907,556.610474 829.950684,570.342529 814.194031,583.081238 
	C799.509949,594.952759 784.436829,606.475403 768.684753,616.862366 
	C745.886963,631.895325 722.323120,645.766602 698.728882,660.056396 
	C697.756226,659.778015 696.974609,659.752258 696.549805,659.349854 
	C686.525452,649.852539 676.539612,640.314636 666.224121,630.476562 
	C680.110229,615.735596 693.760132,601.245361 707.312134,586.859009 
	C745.559021,607.524902 783.142029,596.798645 806.563538,575.724365 
	C831.271729,553.492249 839.230591,518.686279 831.120728,491.836273 
	C823.792725,497.230133 816.715881,502.700653 809.373474,507.788025 
	C794.934082,517.792847 779.212891,523.586426 761.264709,522.007080 
	C744.172791,520.503052 729.908569,504.451904 736.987244,485.757050 
	C740.769897,475.767212 746.254395,466.987427 753.349792,459.140015 
	C761.141724,450.522247 769.037476,441.998413 776.994080,433.318024 
	C750.458435,423.442841 714.008240,427.518372 690.463440,452.236633 
	C658.470093,485.824615 656.133057,523.009521 679.919678,562.510315 
	C665.125427,575.185486 650.355713,587.839722 634.969604,601.021973 
	C622.794189,588.863525 610.817200,576.903259 598.912109,564.638306 
	C598.686462,563.872070 598.388977,563.410583 598.066284,562.923706 
	C598.041138,562.898315 598.089966,562.846130 598.042969,562.474915 
	C589.244324,541.921448 580.492676,521.739197 571.712952,501.492188 
	C603.249817,486.728180 632.883606,469.882446 660.523560,449.785522 
	C676.643555,438.064728 692.518677,425.873871 707.480530,412.729553 
	C723.613525,398.556396 738.551819,383.023346 754.011292,368.083557 
z"/>
<path fill="#EEEEEE" opacity="1.000000" stroke="none" 
	d="
M750.056580,846.163208 
	C740.584778,842.840454 732.137329,846.091797 723.356567,849.812500 
	C722.597229,848.978882 722.228882,848.618408 722.039612,848.180481 
	C714.687744,831.177979 707.373169,814.159363 700.009155,797.162170 
	C691.620728,777.800476 683.190002,758.457153 675.002319,738.732910 
	C676.386902,739.251709 677.682495,740.012756 678.686096,741.054932 
	C691.955811,754.833984 705.131042,768.704346 718.457153,782.428345 
	C722.243164,786.327454 726.438538,789.829102 729.763306,792.885254 
	C746.800415,775.835510 764.139099,758.484009 781.821899,740.788147 
	C781.062683,740.140808 779.741394,739.123047 778.543640,737.976318 
	C759.438843,719.685181 740.342712,701.385132 721.273132,683.057373 
	C719.981384,681.815918 718.917114,680.337708 717.941650,678.658447 
	C735.984924,667.503052 754.168335,657.165955 771.586914,645.670105 
	C788.557190,634.470154 804.926758,622.327332 821.209106,610.129944 
	C831.231140,602.622314 840.642273,594.292236 850.240051,586.227234 
	C858.106812,579.616821 865.844177,572.852478 873.853882,565.971619 
	C882.196106,600.056458 883.808105,634.376831 882.989075,668.914978 
	C872.738037,671.010132 868.225708,678.132629 865.218872,687.546753 
	C858.566101,708.376221 849.166504,728.015564 837.648865,746.630981 
	C831.532837,756.515991 832.515808,763.829651 840.790588,772.125122 
	C845.489075,776.835388 850.143311,781.589905 854.490356,786.820801 
	C852.524963,788.294434 850.892334,789.281250 849.247620,790.247681 
	C827.839294,802.826538 806.539612,815.595886 784.974915,827.900757 
	C773.573914,834.406189 761.710938,840.101929 750.056580,846.163208 
z"/>
<path fill="#EEEEEE" opacity="1.000000" stroke="none" 
	d="
M668.933777,297.984680 
	C668.955688,303.303101 669.215332,308.633362 668.951233,313.937531 
	C668.349060,326.035919 675.438843,332.385254 684.560547,335.835724 
	C700.200134,341.751740 715.391846,348.851807 730.828003,356.074677 
	C714.278748,371.939392 698.090088,387.674438 680.932861,402.270966 
	C667.640015,413.579865 653.281433,423.666168 639.117065,433.909424 
	C630.295349,440.289062 620.953430,445.949310 611.531433,451.836700 
	C604.760559,444.625031 598.663696,437.136658 591.774414,430.466858 
	C575.006348,414.233002 555.556030,404.817627 531.288086,408.326294 
	C530.421021,406.216187 529.715759,404.443909 528.963196,402.691956 
	C523.918213,390.948425 518.941284,379.174835 513.785645,367.480072 
	C509.996368,358.884705 505.968750,350.394470 502.047302,341.857422 
	C509.981934,338.894501 517.871521,335.802155 525.868774,333.019196 
	C530.376587,331.450562 535.112061,330.546295 539.656006,329.069061 
	C547.601135,326.486115 551.910339,320.710724 551.999939,312.440430 
	C552.120422,301.322540 552.005371,290.202240 552.072327,279.083466 
	C552.082947,277.319092 552.518677,275.557312 553.242371,273.299774 
	C557.477112,269.696411 561.182800,266.531494 564.995239,263.500885 
	C567.118774,261.812805 569.365295,261.081055 572.313416,261.924438 
	C580.347595,264.222839 588.629822,265.710999 596.566833,268.282410 
	C621.432068,276.338287 645.981689,285.235779 668.933777,297.984680 
z"/>
<path fill="#EEEEEE" opacity="1.000000" stroke="none" 
	d="
M430.978302,335.838318 
	C432.350006,336.673492 433.915741,337.302917 435.058746,338.380646 
	C439.299194,342.379150 443.392120,346.533783 447.555695,350.614227 
	C456.423218,359.304657 461.634674,360.052948 472.873322,354.342651 
	C474.634888,353.447601 476.484863,352.726440 478.760193,352.342194 
	C486.489044,369.420197 493.773560,386.071411 501.002258,402.746826 
	C503.476868,408.455353 505.811737,414.224457 508.106812,420.296814 
	C476.467651,452.425354 444.932159,484.222961 411.911774,517.517761 
	C408.419006,512.725342 405.593445,508.848419 402.565063,504.693146 
	C395.246918,512.064209 389.091064,518.375000 382.795715,524.543396 
	C380.697388,526.599426 378.241943,528.291016 375.526611,530.081177 
	C371.388824,530.343323 367.680359,530.810181 363.958344,530.979431 
	C349.369049,531.643372 334.775452,532.213379 320.183472,532.818237 
	C330.665924,530.459412 334.094910,522.304260 337.079559,513.230469 
	C343.484344,493.758850 352.163635,475.272949 362.873749,457.773468 
	C370.745667,444.911407 370.052094,438.905182 359.574036,428.263977 
	C354.226349,422.833008 349.076904,417.206879 343.913483,410.929443 
	C344.987213,407.506409 345.790680,404.730316 347.014984,402.154236 
	C354.856354,385.655487 362.896454,369.250183 370.602203,352.688965 
	C372.110718,349.446899 374.260010,348.453094 377.431366,347.944519 
	C384.114899,346.872650 390.802917,345.724976 397.391998,344.191223 
	C408.626801,341.576141 419.786865,338.639740 430.978302,335.838318 
M435.352295,487.726471 
	C448.797516,473.976410 462.242737,460.226349 475.099976,447.077606 
	C472.954651,444.612457 470.699829,442.021454 469.022461,440.093994 
	C455.311523,453.784027 441.704498,467.370300 427.958527,481.095337 
	C429.941132,483.046234 432.301361,485.368713 435.352295,487.726471 
z"/>
<path fill="#000000" opacity="1.000000" stroke="none" 
	d="
M319.710846,532.916748 
	C334.775452,532.213379 349.369049,531.643372 363.958344,530.979431 
	C367.680359,530.810181 371.388824,530.343323 375.401367,530.380920 
	C372.542664,533.589783 369.386139,536.430908 366.186279,539.310974 
	C371.622894,545.122192 376.196289,550.010681 380.423889,555.116882 
	C375.915894,555.889160 371.768494,556.731873 367.588776,556.946960 
	C352.101379,557.744141 336.603271,558.332214 321.109619,559.009460 
	C320.491058,559.036499 319.877197,559.171875 318.557098,559.353760 
	C319.045593,566.750122 319.319305,573.976196 320.043671,581.156921 
	C321.203491,592.654724 321.971161,604.255859 324.156219,615.571594 
	C327.445587,632.606506 331.132935,649.626587 335.873749,666.305542 
	C344.413361,696.349365 357.040558,724.755981 373.057373,751.591309 
	C374.049652,753.253784 376.797882,754.890930 378.673340,754.829712 
	C387.682190,754.535767 396.717743,754.018494 405.657532,752.894409 
	C418.857880,751.234680 432.015961,749.175903 445.135437,746.953064 
	C459.444336,744.528809 473.688660,741.723633 487.976562,739.512573 
	C488.121796,748.694336 491.096375,756.335571 496.951263,762.850342 
	C489.612732,764.566406 482.323151,766.541016 474.925018,767.942139 
	C461.594635,770.466858 448.240173,772.928345 434.818726,774.889038 
	C422.896149,776.630676 410.865997,777.630493 398.890991,779.023682 
	C396.657013,779.283630 394.459351,779.855408 391.533813,780.420654 
	C404.958832,800.053040 420.203094,817.732788 436.909851,834.600037 
	C432.284393,838.816711 427.537415,842.687012 422.858398,846.637878 
	C421.485291,847.797241 420.304840,849.184875 418.588318,850.573608 
	C412.013214,844.217712 405.441833,838.116089 399.850098,831.220093 
	C387.822021,816.386597 376.147705,801.256836 364.702271,785.968567 
	C362.550446,783.094238 360.712341,781.807922 357.227478,781.944275 
	C346.169708,782.376587 335.102356,782.564392 324.038727,782.846741 
	C333.250458,773.506348 342.447235,764.151184 351.678680,754.830261 
	C358.691559,747.749329 360.113251,740.294067 355.769653,731.506897 
	C344.778809,709.272339 335.281036,686.508179 329.872894,662.173279 
	C328.185822,654.582031 320.298126,649.406738 310.999786,649.014954 
	C309.339813,648.945007 307.674835,648.993896 305.408020,648.601196 
	C296.775360,618.780457 294.331207,588.581177 292.793945,558.707886 
	C277.593170,557.452576 262.732941,556.305359 247.892441,554.942932 
	C244.247040,554.608337 240.666077,553.571777 237.055496,552.857849 
	C235.025589,543.205444 245.372498,532.766174 256.441193,532.917969 
	C277.370026,533.205017 298.305511,533.010010 319.710846,532.916748 
z"/>
<path fill="#000000" opacity="1.000000" stroke="none" 
	d="
M883.457031,668.949707 
	C883.808105,634.376831 882.196106,600.056458 873.853882,565.971619 
	C865.844177,572.852478 858.106812,579.616821 850.240051,586.227234 
	C840.642273,594.292236 831.231140,602.622314 821.209106,610.129944 
	C804.926758,622.327332 788.557190,634.470154 771.586914,645.670105 
	C754.168335,657.165955 735.984924,667.503052 717.668701,678.493225 
	C711.162842,672.470642 705.124451,666.302063 699.086060,660.133484 
	C722.323120,645.766602 745.886963,631.895325 768.684753,616.862366 
	C784.436829,606.475403 799.509949,594.952759 814.194031,583.081238 
	C829.950684,570.342529 844.904907,556.610474 860.193604,543.293945 
	C866.869385,537.479248 867.195374,537.326233 863.946533,528.897461 
	C857.559509,512.326721 851.075623,495.778168 844.039124,479.476257 
	C833.285217,454.561768 818.583557,431.885834 802.497131,410.170074 
	C795.119873,400.211182 786.476685,391.181702 778.286682,381.836731 
	C774.056274,377.009766 769.561462,372.414581 765.089478,367.399231 
	C769.608459,363.273407 774.254883,359.499481 778.822998,355.633087 
	C780.453369,354.253143 781.894226,352.649292 784.052917,351.149445 
	C786.680420,353.507446 788.609131,355.924988 790.686951,358.206848 
	C794.776550,362.698212 799.271423,366.859314 803.026855,371.609100 
	C814.533386,386.162201 826.132690,400.667450 836.973022,415.712158 
	C843.392395,424.621246 848.447021,434.513641 854.115295,443.963867 
	C852.783875,445.436920 851.636353,447.147949 850.090027,448.342926 
	C842.437012,454.257050 842.432800,464.231720 846.365234,471.718964 
	C854.877075,487.925354 861.871399,504.740173 867.110046,522.279419 
	C868.469177,526.829956 869.853882,531.381409 870.967163,535.995117 
	C873.786072,547.678162 880.199768,552.359558 891.982849,552.989319 
	C893.312378,553.060425 894.648560,553.006104 896.511108,553.287109 
	C897.339294,553.751770 897.638000,553.939087 897.965698,554.542725 
	C898.577332,557.780762 899.298889,560.582092 899.719971,563.427856 
	C902.515747,582.323181 905.856323,601.165955 907.794434,620.150879 
	C909.183105,633.753784 908.725647,647.550232 908.946899,661.262695 
	C908.988037,663.810181 908.339539,666.368774 908.009277,668.922241 
	C899.981140,668.942932 891.953064,668.963684 883.457031,668.949707 
z"/>
<path fill="#000000" opacity="1.000000" stroke="none" 
	d="
M611.845032,451.932373 
	C620.953430,445.949310 630.295349,440.289062 639.117065,433.909424 
	C653.281433,423.666168 667.640015,413.579865 680.932861,402.270966 
	C698.090088,387.674438 714.278748,371.939392 731.013550,356.379883 
	C736.869080,359.404602 742.568115,362.792450 748.340271,366.050812 
	C749.861816,366.909698 751.609253,367.368439 753.632080,368.047241 
	C738.551819,383.023346 723.613525,398.556396 707.480530,412.729553 
	C692.518677,425.873871 676.643555,438.064728 660.523560,449.785522 
	C632.883606,469.882446 603.249817,486.728180 571.712952,501.492188 
	C580.492676,521.739197 589.244324,541.921448 597.754639,562.750244 
	C582.322327,548.999878 567.131348,534.602905 551.957581,519.902588 
	C551.669128,519.372437 551.363525,519.145691 551.032654,518.959290 
	C551.007385,518.999634 551.075989,518.933350 551.046265,518.554321 
	C550.181213,516.081177 549.346008,513.987061 548.522949,511.923523 
	C547.089783,512.420227 546.060120,512.777161 544.720337,512.991333 
	C539.345581,508.139099 534.208984,503.503387 529.251831,498.683228 
	C527.302612,496.787872 525.846130,496.567474 523.866394,498.583008 
	C512.279358,510.379608 500.624359,522.109558 488.584778,533.927002 
	C487.081482,534.172485 485.965332,534.273071 484.893433,534.547058 
	C478.917511,536.074463 472.952301,537.643799 466.738678,538.882141 
	C478.609863,526.350159 490.725800,514.134888 503.246704,501.961792 
	C515.102966,497.651886 526.554260,493.299774 538.291382,488.839050 
	C536.027466,483.276489 533.944885,478.159576 532.003845,472.731445 
	C538.712646,466.959930 545.279968,461.499603 552.011597,456.378662 
	C555.311157,463.824768 558.446411,470.931519 561.666199,478.229919 
	C569.616455,474.227722 577.442139,470.514465 585.048645,466.396545 
	C592.931152,462.129242 600.601318,457.469696 608.681763,453.046051 
	C610.132629,453.423981 611.265930,453.737488 612.775757,454.155151 
	C612.319824,453.066193 612.082397,452.499298 611.845032,451.932373 
z"/>
<path fill="#EDEEED" opacity="1.000000" stroke="none" 
	d="
M854.445801,443.917297 
	C848.447021,434.513641 843.392395,424.621246 836.973022,415.712158 
	C826.132690,400.667450 814.533386,386.162201 803.026855,371.609100 
	C799.271423,366.859314 794.776550,362.698212 790.686951,358.206848 
	C788.609131,355.924988 786.680420,353.507446 784.362549,351.004700 
	C784.869019,349.516632 785.480713,347.961548 786.559937,346.867737 
	C794.394165,338.926941 802.287598,331.043518 810.230957,323.211548 
	C819.096619,314.470184 830.020508,314.206390 838.967712,322.992188 
	C857.143127,340.839691 874.938293,359.075562 893.186401,376.847168 
	C900.729736,384.193481 901.072144,398.252808 892.932129,405.770966 
	C879.738586,417.956726 867.448120,431.120117 854.445801,443.917297 
z"/>
<path fill="#EEEEEE" opacity="1.000000" stroke="none" 
	d="
M908.471252,669.013794 
	C908.339539,666.368774 908.988037,663.810181 908.946899,661.262695 
	C908.725647,647.550232 909.183105,633.753784 907.794434,620.150879 
	C905.856323,601.165955 902.515747,582.323181 899.719971,563.427856 
	C899.298889,560.582092 898.577332,557.780762 897.985352,554.238892 
	C898.002930,553.114014 898.030029,552.709106 898.057129,552.304199 
	C914.546997,552.245544 931.042419,551.907593 947.524780,552.231750 
	C957.600220,552.429810 965.788086,561.001953 965.861938,571.142883 
	C966.054993,597.635803 966.070190,624.132446 965.842896,650.624939 
	C965.753296,661.075745 957.753418,669.009094 947.410950,669.190186 
	C934.589478,669.414734 921.759521,669.155579 908.471252,669.013794 
z"/>
<path fill="#EDEEEE" opacity="1.000000" stroke="none" 
	d="
M323.706116,782.946533 
	C335.102356,782.564392 346.169708,782.376587 357.227478,781.944275 
	C360.712341,781.807922 362.550446,783.094238 364.702271,785.968567 
	C376.147705,801.256836 387.822021,816.386597 399.850098,831.220093 
	C405.441833,838.116089 412.013214,844.217712 418.389099,850.861694 
	C417.845703,852.252136 417.222870,853.624390 416.235046,854.642578 
	C408.470306,862.645447 400.704956,870.650085 392.804718,878.518555 
	C383.532593,887.753479 370.981232,887.794617 361.721710,878.518250 
	C344.084778,860.849304 326.512848,843.114380 309.034088,825.289062 
	C299.427460,815.492004 299.570801,805.933960 309.261749,796.365479 
	C313.863312,791.822083 318.663361,787.479675 323.706116,782.946533 
z"/>
<path fill="#EEEEEE" opacity="1.000000" stroke="none" 
	d="
M236.713501,553.130005 
	C240.666077,553.571777 244.247040,554.608337 247.892441,554.942932 
	C262.732941,556.305359 277.593170,557.452576 292.793945,558.707886 
	C294.331207,588.581177 296.775360,618.780457 304.964264,648.575378 
	C303.737885,649.278809 302.352356,649.913025 300.964142,649.918945 
	C285.810242,649.983887 270.640869,649.541870 255.507294,650.097229 
	C246.405853,650.431274 235.589401,639.508911 235.814621,630.285156 
	C236.412003,605.819885 236.007751,581.330200 236.025208,556.850281 
	C236.026031,555.700867 236.250961,554.551514 236.713501,553.130005 
z"/>
<path fill="#000000" opacity="1.000000" stroke="none" 
	d="
M674.777710,739.105835 
	C683.190002,758.457153 691.620728,777.800476 700.009155,797.162170 
	C707.373169,814.159363 714.687744,831.177979 722.039612,848.180481 
	C722.228882,848.618408 722.597229,848.978882 722.982056,849.744019 
	C715.621033,853.408936 708.160034,856.705261 700.325806,860.072266 
	C696.015686,851.580139 691.940857,843.077637 688.176575,834.439758 
	C683.313782,823.281250 678.755127,811.990662 673.965515,800.799805 
	C665.644775,781.358337 657.264648,761.942139 648.873596,742.530823 
	C645.630920,735.029480 642.367126,727.534119 638.883179,720.144470 
	C638.513855,719.361267 636.363281,718.673279 635.425232,719.011658 
	C611.321655,727.706543 587.271973,736.550476 563.200562,745.334656 
	C562.159607,745.714478 561.001282,745.772400 559.575073,745.655701 
	C571.174805,732.592651 583.097046,719.854187 595.405457,707.060791 
	C606.254089,702.942505 616.716553,698.879211 627.406067,694.727661 
	C626.409607,691.783142 625.599182,689.388123 625.113281,686.753662 
	C626.615967,687.841675 627.742798,689.219238 628.980164,690.488953 
	C642.369019,704.227356 655.786621,717.937744 669.162659,731.688599 
	C670.866089,733.439697 672.377258,735.377869 673.983887,737.522766 
	C674.292908,738.228577 674.595520,738.641052 674.860352,739.049072 
	C674.822693,739.044678 674.777710,739.105835 674.777710,739.105835 
z"/>
<path fill="#000000" opacity="1.000000" stroke="none" 
	d="
M750.218994,846.448242 
	C761.710938,840.101929 773.573914,834.406189 784.974915,827.900757 
	C806.539612,815.595886 827.839294,802.826538 849.247620,790.247681 
	C850.892334,789.281250 852.524963,788.294434 854.460083,787.156250 
	C862.420776,794.443787 870.084595,801.892212 877.807739,809.993408 
	C873.894409,819.561340 870.166382,828.596130 865.883423,837.359680 
	C861.167664,847.008789 855.941956,856.408691 850.938416,865.917114 
	C850.938416,865.917114 850.987122,865.982788 850.650757,866.076538 
	C850.141357,866.786011 849.968323,867.401611 849.795288,868.017212 
	C841.089050,876.618958 832.413086,885.251587 823.666443,893.812134 
	C817.578552,899.770447 808.274475,900.742310 801.430542,895.744690 
	C804.166809,891.050415 807.283997,886.965881 810.009216,882.634644 
	C819.082764,868.213135 828.134827,853.774902 836.933289,839.185181 
	C839.754272,834.507385 841.762451,829.339417 844.523926,823.603271 
	C829.153809,832.163574 814.779846,840.209351 800.366089,848.183167 
	C790.123779,853.849365 779.827881,859.418701 769.555908,865.031250 
	C763.164429,858.931946 756.772949,852.832642 750.218994,846.448242 
z"/>
<path fill="#000000" opacity="1.000000" stroke="none" 
	d="
M533.049622,905.488647 
	C540.194580,908.266113 547.240112,911.666626 554.457214,914.652161 
	C556.487244,915.491943 559.218201,915.792603 561.294006,915.190369 
	C586.347778,907.921936 611.345032,900.457886 636.340088,892.988464 
	C640.312134,891.801453 644.201111,890.336426 648.521240,888.994507 
	C648.937134,897.618164 648.960205,906.247314 648.605896,915.429688 
	C632.532959,921.063110 616.837341,926.143250 601.141724,931.223328 
	C605.324707,933.460144 609.506104,934.929688 613.792908,935.961304 
	C625.486511,938.775574 637.224548,941.405090 648.945007,944.107788 
	C649.177734,957.292419 642.208984,964.838989 628.758301,965.078308 
	C626.531555,964.737244 625.166138,964.293823 623.767944,964.014282 
	C603.941223,960.050476 584.756226,953.958191 566.031921,946.410522 
	C560.152527,944.040527 554.594238,942.392578 548.125732,944.842651 
	C543.391357,946.635803 538.117188,947.003845 533.083679,948.007202 
	C533.060852,933.989624 533.038025,919.972046 533.049622,905.488647 
z"/>
<path fill="#000000" opacity="1.000000" stroke="none" 
	d="
M430.841614,335.543182 
	C419.786865,338.639740 408.626801,341.576141 397.391998,344.191223 
	C390.802917,345.724976 384.114899,346.872650 377.431366,347.944519 
	C374.260010,348.453094 372.110718,349.446899 370.602203,352.688965 
	C362.896454,369.250183 354.856354,385.655487 347.014984,402.154236 
	C345.790680,404.730316 344.987213,407.506409 343.881531,410.568695 
	C337.386230,404.692627 330.998535,398.437866 324.417664,391.707855 
	C330.083954,378.305603 335.943420,365.378632 341.919769,352.193695 
	C339.572784,352.074280 337.305389,351.958893 335.037994,351.843536 
	C349.419952,337.334381 363.673584,322.694489 378.251373,308.384857 
	C383.569794,303.164276 392.494263,300.163361 400.557892,306.256897 
	C397.890869,310.681854 394.982269,314.637909 391.228912,319.742981 
	C398.625183,317.918671 404.746643,316.408813 410.868134,314.898956 
	C417.480377,321.681976 424.092651,328.465027 430.841614,335.543182 
z"/>
<path fill="#000000" opacity="1.000000" stroke="none" 
	d="
M668.960938,297.517700 
	C645.981689,285.235779 621.432068,276.338287 596.566833,268.282410 
	C588.629822,265.710999 580.347595,264.222839 572.313416,261.924438 
	C569.365295,261.081055 567.118774,261.812805 564.995239,263.500885 
	C561.182800,266.531494 557.477112,269.696411 553.400635,272.907654 
	C553.049377,267.196930 553.005066,261.383789 553.003540,255.570633 
	C553.000732,244.783783 560.815186,237.005981 571.648560,236.999817 
	C578.791260,236.995743 585.933899,237.010986 593.429016,237.384735 
	C593.133179,238.597244 592.484985,239.442581 591.664368,240.512726 
	C593.279358,241.117905 594.448730,241.598679 595.645203,241.997971 
	C610.661011,247.009064 625.781616,251.729675 640.663452,257.110565 
	C650.268738,260.583527 659.525574,265.019897 668.938599,269.024536 
	C668.955139,278.366577 668.971680,287.708649 668.960938,297.517700 
z"/>
<path fill="#EEEEEE" opacity="1.000000" stroke="none" 
	d="
M769.587769,865.388306 
	C779.827881,859.418701 790.123779,853.849365 800.366089,848.183167 
	C814.779846,840.209351 829.153809,832.163574 844.523926,823.603271 
	C841.762451,829.339417 839.754272,834.507385 836.933289,839.185181 
	C828.134827,853.774902 819.082764,868.213135 810.009216,882.634644 
	C807.283997,886.965881 804.166809,891.050415 801.101318,895.566162 
	C799.978088,895.404297 798.758850,895.148071 798.021606,894.410217 
	C788.514343,884.895203 779.075684,875.311523 769.587769,865.388306 
z"/>
<path fill="#000000" opacity="1.000000" stroke="none" 
	d="
M508.210480,419.965851 
	C505.811737,414.224457 503.476868,408.455353 501.002258,402.746826 
	C493.773560,386.071411 486.489044,369.420197 479.129059,352.414490 
	C486.454712,348.712524 493.877716,345.355591 501.674011,341.928009 
	C505.968750,350.394470 509.996368,358.884705 513.785645,367.480072 
	C518.941284,379.174835 523.918213,390.948425 528.963196,402.691956 
	C529.715759,404.443909 530.421021,406.216187 530.869873,408.442688 
	C521.981445,410.266235 514.898865,414.717194 508.210480,419.965851 
z"/>
<path fill="#EDEEED" opacity="1.000000" stroke="none" 
	d="
M668.973511,268.555664 
	C659.525574,265.019897 650.268738,260.583527 640.663452,257.110565 
	C625.781616,251.729675 610.661011,247.009064 595.645203,241.997971 
	C594.448730,241.598679 593.279358,241.117905 591.664368,240.512726 
	C592.484985,239.442581 593.133179,238.597244 593.897278,237.420517 
	C595.774414,236.737900 597.534241,236.090240 599.297241,236.081650 
	C615.437927,236.003021 631.580139,235.932297 647.719788,236.086563 
	C654.105652,236.147598 660.643250,237.085236 664.468384,242.888916 
	C666.722107,246.308426 668.159790,250.566696 668.846313,254.636353 
	C669.583252,259.004639 669.010010,263.593933 668.973511,268.555664 
z"/>
<path fill="#EDEEED" opacity="1.000000" stroke="none" 
	d="
M533.032837,948.408447 
	C538.117188,947.003845 543.391357,946.635803 548.125732,944.842651 
	C554.594238,942.392578 560.152527,944.040527 566.031921,946.410522 
	C584.756226,953.958191 603.941223,960.050476 623.767944,964.014282 
	C625.166138,964.293823 626.531555,964.737244 628.315613,965.152344 
	C626.950623,965.454712 625.182617,965.927368 623.413757,965.930847 
	C599.462524,965.977905 575.511047,965.977844 551.559692,965.949036 
	C542.015015,965.937500 533.856567,958.361694 533.032837,948.408447 
z"/>
<path fill="#000000" opacity="1.000000" stroke="none" 
	d="
M297.429016,496.949097 
	C299.499878,482.625305 301.823700,468.299774 304.595032,454.061340 
	C306.091522,446.372894 308.352997,438.833313 310.630737,431.041901 
	C316.308502,436.540344 321.624908,442.223450 326.687042,447.634796 
	C320.340332,461.621552 313.151306,475.977234 307.410065,490.890259 
	C305.281799,496.418610 302.794067,497.660553 297.429016,496.949097 
z"/>
<path fill="#EEEEEE" opacity="1.000000" stroke="none" 
	d="
M649.263062,943.817139 
	C637.224548,941.405090 625.486511,938.775574 613.792908,935.961304 
	C609.506104,934.929688 605.324707,933.460144 601.141724,931.223328 
	C616.837341,926.143250 632.532959,921.063110 648.623352,915.884644 
	C649.018127,915.786255 648.817810,915.994080 649.000122,916.272705 
	C649.337280,916.759888 649.534729,916.913818 649.774780,917.013000 
	C649.710205,925.850830 649.645630,934.688599 649.263062,943.817139 
z"/>
<path fill="#EDEDED" opacity="1.000000" stroke="none" 
	d="
M851.185791,866.239502 
	C855.941956,856.408691 861.167664,847.008789 865.883423,837.359680 
	C870.166382,828.596130 873.894409,819.561340 877.984436,810.275391 
	C886.240417,814.981750 888.175598,829.446411 880.782959,837.517822 
	C871.497986,847.655579 861.259949,856.920349 851.185791,866.239502 
z"/>
<path fill="#000000" opacity="1.000000" stroke="none" 
	d="
M705.049194,290.486176 
	C711.337646,293.798828 717.849548,297.212128 723.790100,301.430084 
	C734.659302,309.147430 745.190918,317.340363 756.002686,325.663239 
	C754.809143,326.185547 753.215210,326.955078 752.182678,326.486847 
	C737.871033,319.996185 723.698608,313.195801 709.334961,306.825256 
	C706.154846,305.414795 704.561035,304.021454 704.932922,300.419434 
	C705.255676,297.293365 705.009583,294.108551 705.049194,290.486176 
z"/>
<path fill="#000000" opacity="1.000000" stroke="none" 
	d="
M496.950134,911.513306 
	C490.435150,907.974121 483.731995,904.286255 477.523590,899.898438 
	C466.904053,892.393188 456.594360,884.449402 446.006165,876.368408 
	C446.832001,875.775635 448.035645,874.990845 448.746704,875.308472 
	C464.013062,882.129517 479.249969,889.019043 494.397430,896.098877 
	C495.617432,896.669189 496.745361,898.656677 496.882233,900.084778 
	C497.229584,903.709778 496.989441,907.391052 496.950134,911.513306 
z"/>
<path fill="#EBEDEC" opacity="1.000000" stroke="none" 
	d="
M334.721802,351.980530 
	C337.305389,351.958893 339.572784,352.074280 341.919769,352.193695 
	C335.943420,365.378632 330.083954,378.305603 324.104614,391.579834 
	C315.779236,385.721588 313.880707,374.160248 320.407715,366.134003 
	C324.552063,361.037659 329.704956,356.761505 334.721802,351.980530 
z"/>
<path fill="#EBEDEC" opacity="1.000000" stroke="none" 
	d="
M410.734009,314.606567 
	C404.746643,316.408813 398.625183,317.918671 391.228912,319.742981 
	C394.982269,314.637909 397.890869,310.681854 400.899811,306.398773 
	C404.200043,308.819275 407.399933,311.566742 410.734009,314.606567 
z"/>
<path fill="#EDEDED" opacity="1.000000" stroke="none" 
	d="
M850.181396,867.890137 
	C849.968323,867.401611 850.141357,866.786011 850.616821,866.053833 
	C850.802002,866.545898 850.684692,867.154480 850.181396,867.890137 
z"/>
<path fill="#D2E0D9" opacity="1.000000" stroke="none" 
	d="
M897.802917,552.300232 
	C898.030029,552.709106 898.002930,553.114014 897.956299,553.822693 
	C897.638000,553.939087 897.339294,553.751770 896.954590,553.305847 
	C897.095337,552.796936 897.322021,552.546631 897.802917,552.300232 
z"/>
<path fill="#000000" opacity="1.000000" stroke="none" 
	d="
M768.356079,313.653839 
	C768.169983,313.155701 768.366760,312.559509 768.800842,311.724915 
	C768.938416,312.176270 768.838745,312.866058 768.356079,313.653839 
z"/>
<path fill="#D1E1D9" opacity="1.000000" stroke="none" 
	d="
M649.807678,916.753662 
	C649.534729,916.913818 649.337280,916.759888 649.087158,916.387817 
	C649.274780,916.314331 649.557678,916.404358 649.807678,916.753662 
z"/>
<path fill="#349966" opacity="1.000000" stroke="none" 
	d="
M595.019287,707.115662 
	C583.097046,719.854187 571.174805,732.592651 559.168457,745.652771 
	C555.044678,749.766541 550.388611,753.088562 547.074768,757.434143 
	C534.360168,774.107605 515.854004,776.846619 499.326843,764.040527 
	C498.811554,763.641174 498.196594,763.370483 497.289673,762.945068 
	C491.096375,756.335571 488.121796,748.694336 488.213196,739.188354 
	C489.481354,729.524109 493.188293,721.992249 500.084991,716.148682 
	C517.220642,701.629761 534.397949,687.159790 551.506409,672.609009 
	C562.754395,663.042664 573.911865,653.369812 585.331604,643.554138 
	C551.822693,608.446777 518.637390,573.678589 485.507294,538.968201 
	C486.818878,537.046570 487.905609,535.454346 488.992371,533.862061 
	C500.624359,522.109558 512.279358,510.379608 523.866394,498.583008 
	C525.846130,496.567474 527.302612,496.787872 529.251831,498.683228 
	C534.208984,503.503387 539.345581,508.139099 544.710571,513.338074 
	C547.032471,515.529480 549.054260,517.231384 551.075989,518.933350 
	C551.075989,518.933350 551.007385,518.999634 550.844360,519.281555 
	C551.101074,519.777649 551.520752,519.991760 551.940430,520.205872 
	C567.131348,534.602905 582.322327,548.999878 597.801636,563.121460 
	C598.089966,562.846130 598.041138,562.898315 597.781799,563.143066 
	C597.961731,563.906250 598.400940,564.424561 598.840149,564.942932 
	C610.817200,576.903259 622.794189,588.863525 634.969604,601.021973 
	C650.355713,587.839722 665.125427,575.185486 679.919678,562.510315 
	C656.133057,523.009521 658.470093,485.824615 690.463440,452.236633 
	C714.008240,427.518372 750.458435,423.442841 776.994080,433.318024 
	C769.037476,441.998413 761.141724,450.522247 753.349792,459.140015 
	C746.254395,466.987427 740.769897,475.767212 736.987244,485.757050 
	C729.908569,504.451904 744.172791,520.503052 761.264709,522.007080 
	C779.212891,523.586426 794.934082,517.792847 809.373474,507.788025 
	C816.715881,502.700653 823.792725,497.230133 831.120728,491.836273 
	C839.230591,518.686279 831.271729,553.492249 806.563538,575.724365 
	C783.142029,596.798645 745.559021,607.524902 707.312134,586.859009 
	C693.760132,601.245361 680.110229,615.735596 666.224121,630.476562 
	C676.539612,640.314636 686.525452,649.852539 696.549805,659.349854 
	C696.974609,659.752258 697.756226,659.778015 698.728882,660.056396 
	C705.124451,666.302063 711.162842,672.470642 717.474121,678.804443 
	C718.917114,680.337708 719.981384,681.815918 721.273132,683.057373 
	C740.342712,701.385132 759.438843,719.685181 778.543640,737.976318 
	C779.741394,739.123047 781.062683,740.140808 781.821899,740.788147 
	C764.139099,758.484009 746.800415,775.835510 729.763306,792.885254 
	C726.438538,789.829102 722.243164,786.327454 718.457153,782.428345 
	C705.131042,768.704346 691.955811,754.833984 678.686096,741.054932 
	C677.682495,740.012756 676.386902,739.251709 675.002319,738.732910 
	C674.777710,739.105835 674.822693,739.044678 675.220337,738.835144 
	C675.071167,738.160217 674.524292,737.694763 673.977478,737.229370 
	C672.377258,735.377869 670.866089,733.439697 669.162659,731.688599 
	C655.786621,717.937744 642.369019,704.227356 628.980164,690.488953 
	C627.742798,689.219238 626.615967,687.841675 625.156494,686.746643 
	C624.875122,686.979065 624.914856,687.057800 625.188232,686.804321 
	C624.971985,686.058899 624.482300,685.567078 623.680725,684.927002 
	C622.351868,683.164673 621.334900,681.550537 620.048828,679.509216 
	C612.860046,687.115540 606.098694,694.197632 599.435547,701.370972 
	C597.798828,703.132996 596.482788,705.192749 595.019287,707.115662 
z"/>
<path fill="#000000" opacity="1.000000" stroke="none" 
	d="
M598.912109,564.638306 
	C598.400940,564.424561 597.961731,563.906250 597.806946,563.168457 
	C598.388977,563.410583 598.686462,563.872070 598.912109,564.638306 
z"/>
<path fill="#339966" opacity="1.000000" stroke="none" 
	d="
M508.106812,420.296814 
	C514.898865,414.717194 521.981445,410.266235 531.009705,408.789917 
	C555.556030,404.817627 575.006348,414.233002 591.774414,430.466858 
	C598.663696,437.136658 604.760559,444.625031 611.531433,451.836731 
	C612.082397,452.499298 612.319824,453.066193 612.775757,454.155151 
	C611.265930,453.737488 610.132629,453.423981 608.480591,452.708832 
	C595.125854,447.644958 581.865112,446.455719 568.583252,449.120636 
	C562.775696,450.285889 557.412354,453.665344 551.847290,456.039307 
	C545.279968,461.499603 538.712646,466.959930 531.672607,472.764587 
	C524.932129,479.207153 518.595703,485.236908 512.424133,491.430908 
	C509.084717,494.782410 506.026703,498.414246 502.841736,501.919617 
	C490.725800,514.134888 478.609863,526.350159 466.733551,538.840637 
	C466.973175,539.115845 467.050140,539.081665 466.826019,538.799683 
	C466.084869,538.962219 465.567871,539.406738 464.732239,539.985840 
	C459.735718,544.474548 455.057800,548.828552 450.249634,553.303772 
	C453.638611,556.861450 456.468475,559.832214 459.171356,562.669617 
	C447.563904,574.107178 436.233398,585.271851 423.741669,597.580750 
	C423.211334,596.697937 422.525848,594.845703 421.261963,593.563782 
	C409.706604,581.844055 398.087494,570.186157 386.380341,558.618164 
	C384.814270,557.070740 382.654510,556.124023 380.769653,554.899170 
	C376.196289,550.010681 371.622894,545.122192 366.186279,539.310974 
	C369.386139,536.430908 372.542664,533.589783 375.824463,530.448975 
	C378.241943,528.291016 380.697388,526.599426 382.795715,524.543396 
	C389.091064,518.375000 395.246918,512.064209 402.565063,504.693146 
	C405.593445,508.848419 408.419006,512.725342 411.911774,517.517761 
	C444.932159,484.222961 476.467651,452.425354 508.106812,420.296814 
z"/>
<path fill="#389B6A" opacity="1.000000" stroke="none" 
	d="
M435.006927,487.708801 
	C432.301361,485.368713 429.941132,483.046234 427.958527,481.095337 
	C441.704498,467.370300 455.311523,453.784027 469.022461,440.093994 
	C470.699829,442.021454 472.954651,444.612457 475.099976,447.077606 
	C462.242737,460.226349 448.797516,473.976410 435.006927,487.708801 
z"/>
<path fill="#EEEEEE" opacity="1.000000" stroke="none" 
	d="
M380.423920,555.116882 
	C382.654510,556.124023 384.814270,557.070740 386.380341,558.618164 
	C398.087494,570.186157 409.706604,581.844055 421.261963,593.563782 
	C422.525848,594.845703 423.211334,596.697937 423.741669,597.580750 
	C436.233398,585.271851 447.563904,574.107178 459.171356,562.669617 
	C456.468475,559.832214 453.638611,556.861450 450.249634,553.303772 
	C455.057800,548.828552 459.735718,544.474548 465.038391,540.052612 
	C466.125458,539.683777 466.587799,539.382690 467.050140,539.081665 
	C467.050140,539.081665 466.973175,539.115845 466.978302,539.157349 
	C472.952301,537.643799 478.917511,536.074463 484.893433,534.547058 
	C485.965332,534.273071 487.081482,534.172485 488.584778,533.927002 
	C487.905609,535.454346 486.818878,537.046570 485.507294,538.968201 
	C518.637390,573.678589 551.822693,608.446777 585.331604,643.554138 
	C573.911865,653.369812 562.754395,663.042664 551.506409,672.609009 
	C534.397949,687.159790 517.220642,701.629761 500.084991,716.148682 
	C493.188293,721.992249 489.481354,729.524109 488.197784,738.760254 
	C473.688660,741.723633 459.444336,744.528809 445.135437,746.953064 
	C432.015961,749.175903 418.857880,751.234680 405.657532,752.894409 
	C396.717743,754.018494 387.682190,754.535767 378.673340,754.829712 
	C376.797882,754.890930 374.049652,753.253784 373.057373,751.591309 
	C357.040558,724.755981 344.413361,696.349365 335.873749,666.305542 
	C331.132935,649.626587 327.445587,632.606506 324.156219,615.571594 
	C321.971161,604.255859 321.203491,592.654724 320.043671,581.156921 
	C319.319305,573.976196 319.045593,566.750122 318.557098,559.353760 
	C319.877197,559.171875 320.491058,559.036499 321.109619,559.009460 
	C336.603271,558.332214 352.101379,557.744141 367.588776,556.946960 
	C371.768494,556.731873 375.915894,555.889160 380.423920,555.116882 
z"/>
<path fill="#EDEEED" opacity="1.000000" stroke="none" 
	d="
M552.011597,456.378693 
	C557.412354,453.665344 562.775696,450.285889 568.583252,449.120636 
	C581.865112,446.455719 595.125854,447.644958 608.163086,452.644440 
	C600.601318,457.469696 592.931152,462.129242 585.048645,466.396545 
	C577.442139,470.514465 569.616455,474.227722 561.666199,478.229919 
	C558.446411,470.931519 555.311157,463.824768 552.011597,456.378693 
z"/>
<path fill="#E8ECEA" opacity="1.000000" stroke="none" 
	d="
M503.246704,501.961792 
	C506.026703,498.414246 509.084717,494.782410 512.424133,491.430908 
	C518.595703,485.236908 524.932129,479.207153 531.531128,473.075836 
	C533.944885,478.159576 536.027466,483.276489 538.291382,488.839050 
	C526.554260,493.299774 515.102966,497.651886 503.246704,501.961792 
z"/>
<path fill="#E2E8E5" opacity="1.000000" stroke="none" 
	d="
M551.046265,518.554321 
	C549.054260,517.231384 547.032471,515.529480 545.020569,513.480835 
	C546.060120,512.777161 547.089783,512.420227 548.522949,511.923523 
	C549.346008,513.987061 550.181213,516.081177 551.046265,518.554321 
z"/>
<path fill="#E2E8E5" opacity="1.000000" stroke="none" 
	d="
M551.957581,519.902588 
	C551.520752,519.991760 551.101074,519.777649 550.869629,519.241211 
	C551.363525,519.145691 551.669128,519.372437 551.957581,519.902588 
z"/>
<path fill="#EBEDEC" opacity="1.000000" stroke="none" 
	d="
M595.405457,707.060791 
	C596.482788,705.192749 597.798828,703.132996 599.435547,701.370972 
	C606.098694,694.197632 612.860046,687.115540 620.048828,679.509216 
	C621.334900,681.550537 622.351868,683.164673 623.687378,685.234985 
	C624.308960,686.146667 624.611938,686.602234 624.914856,687.057800 
	C624.914856,687.057800 624.875122,686.979065 624.831909,686.986084 
	C625.599182,689.388123 626.409607,691.783142 627.406067,694.727661 
	C616.716553,698.879211 606.254089,702.942505 595.405457,707.060791 
z"/>
<path fill="#EEEEEE" opacity="1.000000" stroke="none" 
	d="
M673.983887,737.522766 
	C674.524292,737.694763 675.071167,738.160217 675.258057,738.839539 
	C674.595520,738.641052 674.292908,738.228577 673.983887,737.522766 
z"/>
<path fill="#000000" opacity="1.000000" stroke="none" 
	d="
M625.188232,686.804321 
	C624.611938,686.602234 624.308960,686.146667 623.999329,685.383179 
	C624.482300,685.567078 624.971985,686.058899 625.188232,686.804321 
z"/>
<path fill="#000000" opacity="1.000000" stroke="none" 
	d="
M466.826019,538.799683 
	C466.587799,539.382690 466.125458,539.683777 465.356995,539.917969 
	C465.567871,539.406738 466.084869,538.962219 466.826019,538.799683 
z"/>
</svg>